<?xml version="1.0" encoding="UTF-8"?>
<svg width="105.83mm" height="105.83mm" version="1.1" viewBox="0 0 105.83 105.83" xmlns="http://www.w3.org/2000/svg"><g transform="translate(-87.528 -23.502)"><g id="svgg" transform="matrix(.26458 0 0 .26458 87.528 23.502)" fill-rule="evenodd"><path d="m40 0.6c0 0.433-0.473 0.611-1.7 0.64-2.472 0.058-3.65 0.473-4.08 1.44-0.273 0.61-0.886 0.929-2.152 1.119-2.469 0.37-2.763 0.528-3.04 1.63-0.189 0.756-0.507 0.971-1.436 0.971-0.746 0-1.192 0.206-1.192 0.551 0 0.825-1.121 1.601-2.959 2.049-1.186 0.289-1.674 0.628-1.759 1.222-0.075 0.529-0.57 0.957-1.387 1.2-0.871 0.259-1.342 0.693-1.498 1.378-0.164 0.717-0.535 1.036-1.313 1.127-0.904 0.105-1.084 0.321-1.084 1.3 0 1.031-0.142 1.173-1.173 1.173-0.979 0-1.195 0.18-1.3 1.084-0.091 0.778-0.41 1.149-1.127 1.313-0.689 0.157-1.119 0.628-1.383 1.515-0.242 0.817-0.64 1.288-1.086 1.288-0.949 0-1.531 1.207-1.531 3.174 0 1.54-0.063 1.626-1.2 1.626-1.062 0-1.2 0.136-1.2 1.178 0 0.891-0.268 1.306-1.1 1.704-0.893 0.427-1.165 0.905-1.444 2.546-0.249 1.467-0.574 2.123-1.187 2.396-1.018 0.454-1.376 1.627-1.429 4.676-0.031 1.76-0.181 2.3-0.64 2.3-0.53 0-0.6 6.089-0.6 52.4s0.07 52.4 0.6 52.4c0.504 0 0.6 0.879 0.602 5.5 3e-3 5.917 0.414 8.266 1.553 8.876 0.611 0.327 0.758 1.13 0.967 5.282 0.244 4.86 0.255 4.904 1.462 5.848 1.206 0.944 1.216 0.984 1.216 4.843 0 4.013 0.29 4.851 1.68 4.851 0.64 0 0.72 0.399 0.72 3.574 0 4.007 0.434 5.605 1.605 5.911 0.677 0.177 0.795 0.549 0.795 2.502 0 2.81 0.615 4.7 1.633 5.024 0.503 0.159 0.769 0.612 0.771 1.316 0.01 2.422 0.554 4.169 1.632 5.248 0.958 0.957 1.141 1.498 1.244 3.674 0.115 2.451 0.163 2.556 1.22 2.678 1.051 0.12 1.1 0.224 1.1 2.319 0 2.312 0.756 4.298 1.785 4.693 0.41 0.157 0.615 0.764 0.615 1.822 0 2.193 0.616 3.639 1.551 3.639 0.643 0 0.816 0.392 1.046 2.376 0.256 2.201 0.361 2.395 1.42 2.628 1.077 0.236 1.152 0.387 1.264 2.524 0.112 2.147 0.179 2.279 1.219 2.399 1.073 0.123 1.1 0.19 1.1 2.7v2.573h-1.2c-1.067 0-1.2 0.133-1.2 1.2 0 1.053-0.14 1.2-1.142 1.2-0.943 0-1.207 0.224-1.511 1.284-0.253 0.883-0.678 1.357-1.358 1.516-0.697 0.163-1.026 0.545-1.113 1.292-0.096 0.814-0.374 1.088-1.2 1.184-0.838 0.097-1.104 0.367-1.203 1.224-0.083 0.728-0.36 1.1-0.82 1.1-1.08 0-1.653 0.83-1.653 2.394 0 1.173-0.221 1.564-1.216 2.152-0.758 0.448-1.305 1.159-1.45 1.886-0.176 0.877-0.459 1.168-1.137 1.168-1.007 0-1.383 0.883-1.392 3.273-4e-3 1.309-0.128 1.488-1.105 1.6-0.995 0.115-1.112 0.298-1.228 1.926-0.13 1.828-0.959 3.201-1.934 3.201-0.39 0-0.538 0.648-0.538 2.35 0 2.272-0.038 2.358-1.159 2.582-1.08 0.216-1.177 0.392-1.433 2.601-0.224 1.931-0.444 2.446-1.185 2.784-1.116 0.508-1.423 1.875-1.423 6.333 0 2.711-0.114 3.35-0.6 3.35-0.528 0-0.6 3.733-0.6 31.2s0.072 31.2 0.6 31.2c0.459 0 0.609 0.54 0.64 2.3 0.053 3.062 0.412 4.222 1.447 4.684 0.651 0.29 0.927 0.875 1.132 2.4 0.307 2.287 0.749 3.016 1.83 3.016 0.622 0 0.751 0.305 0.751 1.771 0 1.795 0.735 3.029 1.803 3.029 0.324 0 0.597 0.529 0.672 1.3 0.103 1.067 0.314 1.322 1.176 1.422 0.938 0.109 1.081 0.34 1.32 2.142 0.234 1.763 0.418 2.077 1.448 2.466 0.9 0.339 1.181 0.699 1.181 1.508 0 0.854 0.229 1.108 1.172 1.296 0.914 0.183 1.2 0.48 1.3 1.35 0.1 0.874 0.361 1.143 1.204 1.24 0.831 0.096 1.104 0.369 1.2 1.2 0.096 0.832 0.368 1.104 1.2 1.2 0.831 0.096 1.104 0.369 1.2 1.2 0.103 0.89 0.349 1.098 1.424 1.201 1.129 0.109 1.3 0.274 1.3 1.25 0 0.913 0.212 1.167 1.124 1.35 0.68 0.136 1.306 0.624 1.585 1.234 0.371 0.815 0.843 1.06 2.453 1.274 1.775 0.235 2.008 0.38 2.116 1.316 0.1 0.862 0.355 1.073 1.422 1.176 0.967 0.094 1.3 0.321 1.3 0.886 0 1.003 1.17 1.589 3.174 1.589 1.324 0 1.626 0.139 1.626 0.751 0 1.094 0.765 1.564 3.033 1.865 1.51 0.2 2.107 0.478 2.39 1.112 0.455 1.021 1.626 1.379 4.677 1.432 1.76 0.031 2.3 0.181 2.3 0.64 0 0.528 3.378 0.6 28 0.6s28-0.072 28-0.6c0-0.439 0.456-0.6 1.7-0.601 1.705-2e-3 4.3-1.205 4.3-1.993 0-0.223 0.437-0.406 0.971-0.406 1.167 0 2.229-0.967 2.229-2.029 0-0.611 0.284-0.771 1.367-0.771 1.894 0 2.635-0.353 3.054-1.455 0.197-0.52 0.688-0.945 1.089-0.945 0.912 0 1.69-0.75 1.69-1.63 0-0.417 0.432-0.756 1.146-0.899 0.881-0.176 1.202-0.511 1.39-1.45 0.192-0.962 0.452-1.221 1.222-1.221 0.759 0 1.037-0.266 1.238-1.182 0.149-0.678 0.598-1.289 1.055-1.434 0.904-0.287 1.549-1.696 1.549-3.383 0-0.955 0.185-1.169 1.1-1.274 0.926-0.107 1.12-0.34 1.229-1.477 0.084-0.88 0.606-1.84 1.5-2.761 1.214-1.25 1.371-1.656 1.371-3.55 0-1.587 0.147-2.139 0.571-2.139 1.362 0 1.829-1.179 1.829-4.61 0-3.06 0.089-3.443 1.018-4.372 1.539-1.538 3.718-1.44 4.042 0.182 0.21 1.049 0.41 1.2 1.59 1.2 0.88 0 1.35 0.192 1.35 0.551 0 0.854 0.954 1.449 2.841 1.771 1.394 0.238 1.771 0.486 1.958 1.286 0.199 0.853 0.551 1.043 2.516 1.357 1.8 0.287 2.285 0.517 2.285 1.086 0 0.952 1.189 1.549 3.086 1.549 1.342 0 1.596 0.153 1.992 1.2 0.427 1.134 0.574 1.2 2.661 1.2 2.111 0 2.213 0.048 2.334 1.1 0.12 1.04 0.252 1.107 2.399 1.219 2.147 0.113 2.287 0.184 2.529 1.283 0.237 1.082 0.421 1.183 2.596 1.429 2.01 0.228 2.373 0.397 2.574 1.198 0.202 0.801 0.564 0.969 2.589 1.198 1.908 0.216 2.432 0.437 2.763 1.163 0.455 0.999 1.891 1.41 4.927 1.41 1.611 0 1.95 0.125 1.95 0.72 0 1.231 0.874 1.68 3.266 1.68 1.843 0 2.386 0.15 2.706 0.748 0.588 1.099 2.892 2.052 4.961 2.052 1.435 0 1.864 0.16 2.056 0.767 0.319 1.003 2.205 1.633 4.89 1.633 1.86 0 2.291 0.153 3.105 1.1 0.895 1.041 1.159 1.107 4.906 1.235 3.959 0.135 3.961 0.136 4.401 1.3l0.44 1.165h8.011l0.982 1.255 0.983 1.256 4.814 0.198c4.189 0.172 4.838 0.291 5.001 0.913 0.296 1.133 2.805 1.573 8.978 1.576 4.799 2e-3 5.7 0.097 5.7 0.602 0 0.53 6.089 0.6 52.4 0.6s52.4-0.07 52.4-0.6c0-0.459 0.54-0.609 2.3-0.64 3.036-0.053 4.222-0.411 4.668-1.411 0.263-0.589 0.95-0.929 2.4-1.187 1.645-0.293 2.131-0.571 2.554-1.462 0.395-0.833 0.808-1.1 1.7-1.1 1.042 0 1.178-0.138 1.178-1.2 0-1.1 0.114-1.2 1.374-1.2 1.948 0 3.426-0.65 3.426-1.507 0-0.476 0.45-0.86 1.3-1.11 0.879-0.259 1.34-0.666 1.424-1.257 0.085-0.595 0.499-0.955 1.3-1.131 0.974-0.214 1.176-0.459 1.176-1.427 0-1.024 0.144-1.168 1.168-1.168 0.968 0 1.213-0.202 1.427-1.176 0.176-0.801 0.536-1.215 1.131-1.3 0.591-0.084 0.998-0.545 1.257-1.424 0.25-0.85 0.634-1.3 1.11-1.3 0.857 0 1.507-1.478 1.507-3.426 0-1.26 0.1-1.374 1.2-1.374 1.062 0 1.2-0.136 1.2-1.178 0-0.892 0.267-1.305 1.1-1.7 0.891-0.423 1.169-0.909 1.462-2.554 0.258-1.45 0.598-2.137 1.187-2.4 1-0.446 1.358-1.632 1.411-4.668 0.031-1.76 0.181-2.3 0.64-2.3 0.526 0 0.6-2.622 0.6-21.2s-0.074-21.2-0.6-21.2c-0.474 0-0.601-0.569-0.605-2.7-8e-3 -3.536-0.288-4.458-1.443-4.748-0.716-0.179-0.952-0.513-0.952-1.345 0-2.656-0.435-3.607-1.65-3.607-1.104 0-1.15-0.075-1.156-1.9-7e-3 -2.18-0.249-2.685-1.469-3.065-0.565-0.176-0.92-0.657-1-1.354-0.098-0.844-0.366-1.109-1.225-1.208-0.913-0.105-1.1-0.32-1.1-1.268 0-0.933-0.211-1.188-1.154-1.395-0.84-0.184-1.214-0.548-1.373-1.332-0.124-0.611-0.62-1.251-1.146-1.478-0.51-0.22-1.105-0.805-1.322-1.3-0.272-0.621-0.737-0.9-1.5-0.9-0.961 0-1.105-0.156-1.105-1.2 0-1.059-0.137-1.2-1.168-1.2-0.973 0-1.213-0.201-1.432-1.2-0.208-0.946-0.477-1.2-1.271-1.2-1.467 0-3.618-1.132-3.852-2.027-0.168-0.643-0.563-0.773-2.352-0.773-2.021 0-2.177-0.072-2.603-1.2-0.429-1.139-0.568-1.2-2.718-1.2-1.984 0-2.415-0.149-3.466-1.2-1.127-1.127-1.388-1.2-4.307-1.2-3.088 0-4.431-0.569-4.431-1.877 0-0.424-2.699-0.923-4.99-0.923-0.915 0-1.581-0.34-2.347-1.2-0.938-1.052-1.334-1.2-3.224-1.2-1.842 0-2.341-0.174-3.439-1.2-1.145-1.069-1.558-1.2-3.796-1.2-2.169 0-2.539-0.108-2.719-0.795-0.279-1.07-1.849-1.605-4.711-1.605-1.629 0-2.376-0.157-2.38-0.5-0.015-1.246-0.851-1.674-4.067-2.085-2.924-0.375-3.342-0.529-3.449-1.275-0.134-0.932-1.38-1.331-4.228-1.353-1.747-0.013-2.731-0.538-3.162-1.687-0.21-0.56-0.745-0.7-2.675-0.7-1.836 0-2.413-0.138-2.413-0.577 0-1.136-1.68-1.823-4.457-1.823-2.626 0-2.684-0.023-2.932-1.151-0.236-1.071-0.42-1.169-2.676-1.425-1.896-0.214-2.466-0.437-2.619-1.024-0.244-0.931-2.08-1.6-4.394-1.6-1.535 0-1.846-0.152-2.441-1.197-0.631-1.109-0.849-1.198-2.954-1.2-2.182-3e-3 -2.279-0.047-2.4-1.103-0.12-1.037-0.264-1.111-2.527-1.3-2.241-0.187-2.408-0.27-2.523-1.263-0.114-0.982-0.307-1.085-2.5-1.34-1.955-0.227-2.377-0.408-2.377-1.022 0-0.984-1.176-1.575-3.135-1.575-1.403 0-1.635-0.139-2.005-1.2-0.402-1.152-0.373-1.2 0.734-1.2 0.823 0 1.395-0.342 2.006-1.2 0.703-0.988 1.135-1.2 2.44-1.2 2.07 0 4.216-0.917 4.541-1.94 0.175-0.551 0.669-0.852 1.538-0.936 1.063-0.103 1.303-0.311 1.408-1.224 0.108-0.942 0.309-1.101 1.4-1.105 2.067-9e-3 3.067-0.432 3.31-1.399 0.151-0.602 0.623-0.988 1.395-1.142 0.848-0.17 1.168-0.465 1.168-1.079 0-0.576 0.391-0.992 1.23-1.309 0.84-0.317 1.298-0.805 1.445-1.543 0.16-0.798 0.49-1.11 1.271-1.201 0.81-0.094 1.083-0.372 1.179-1.203 0.08-0.697 0.435-1.178 1-1.354 1.199-0.374 1.462-0.886 1.469-2.865 5e-3 -1.41 0.137-1.7 0.777-1.7 1.062 0 2.029-1.062 2.029-2.229 0-0.534 0.183-0.971 0.406-0.971 0.878 0 1.991-2.604 1.993-4.661 1e-3 -1.93 0.077-2.087 1.201-2.479l1.2-0.418v-3.594c0-3.276 0.073-3.617 0.823-3.855 1.453-0.461 1.577-1.873 1.577-17.944v-15.699l-2.4-1.774-6e-3 -5.088c-7e-3 -5.387-0.125-5.908-1.394-6.145-0.593-0.111-0.826-0.51-0.9-1.546-0.346-4.845-0.537-5.591-1.493-5.831-0.807-0.203-0.975-0.565-1.213-2.619-0.258-2.224-0.355-2.399-1.435-2.615s-1.159-0.359-1.159-2.102c0-1.97-0.503-2.83-1.655-2.83-0.491 0-0.731-0.38-0.82-1.3-0.103-1.067-0.314-1.322-1.176-1.422-0.936-0.108-1.081-0.341-1.316-2.116-0.214-1.61-0.459-2.082-1.274-2.453-0.61-0.279-1.098-0.905-1.234-1.585-0.183-0.912-0.437-1.124-1.35-1.124-0.976 0-1.141-0.171-1.25-1.3-0.103-1.075-0.311-1.321-1.201-1.424-0.831-0.096-1.104-0.369-1.2-1.2-0.096-0.832-0.368-1.104-1.2-1.2-0.831-0.096-1.104-0.369-1.2-1.2-0.097-0.843-0.366-1.104-1.24-1.204-0.87-0.1-1.167-0.386-1.35-1.3-0.194-0.97-0.432-1.172-1.384-1.172-0.872 0-1.15-0.188-1.15-0.776 0-0.939-0.502-1.294-2.599-1.842-1.113-0.29-1.76-0.747-2.123-1.5-0.392-0.813-0.815-1.082-1.7-1.082-0.868 0-1.178-0.19-1.178-0.72 0-1.177-0.847-1.68-2.83-1.68-1.738 0-1.886-0.081-2.099-1.146-0.214-1.067-0.394-1.165-2.611-1.415-2.07-0.235-2.412-0.394-2.621-1.226-0.246-0.979-0.963-1.165-5.836-1.513-1.036-0.074-1.435-0.307-1.546-0.9-0.237-1.269-0.758-1.387-6.145-1.394l-5.088-6e-3 -1.774-2.4-15.825 5e-3c-17.176 6e-3 -17.519 0.034-17.873 1.443l-0.239 0.952h-14.307l-1.069 1.2c-0.983 1.103-1.282 1.2-3.703 1.202-3.344 3e-3 -5.485 0.585-5.74 1.559-0.152 0.583-0.726 0.811-2.594 1.027-2.022 0.235-2.535 0.462-3.261 1.445-0.697 0.943-1.163 1.167-2.425 1.167-2.098 0-3.646 0.637-3.899 1.605-0.155 0.592-0.547 0.795-1.54 0.795-1.058 0-1.44 0.226-1.858 1.1-0.409 0.853-0.886 1.148-2.122 1.314-1.987 0.267-2.595 0.632-2.595 1.56 0 0.482-0.392 0.804-1.168 0.96-0.727 0.145-1.438 0.692-1.886 1.45-0.96 1.624-2.146 1.633-2.146 0.016 0-1.062-0.135-1.2-1.181-1.2-1.169 0-1.182-0.025-1.3-2.5-0.114-2.396-0.165-2.505-1.219-2.627-1.033-0.118-1.1-0.245-1.1-2.086 0-2.272-0.991-4.639-2.059-4.918-0.606-0.159-0.741-0.588-0.741-2.352 0-2.252-0.466-3.117-1.68-3.117-0.607 0-0.72-0.349-0.72-2.235 0-2.115-0.064-2.259-1.2-2.687-1.126-0.425-1.202-0.59-1.24-2.666-0.054-2.993-0.42-4.138-1.473-4.607-0.685-0.305-0.887-0.732-0.887-1.874 0-2.317-0.616-3.531-1.79-3.531-1.009 0-1.01-5e-3 -1.01-3.774 0-4.324-0.41-5.826-1.59-5.826-0.747 0-0.81-0.255-0.816-3.3-7e-3 -3.61-0.156-4.055-1.494-4.473-0.851-0.266-0.9-0.49-0.905-4.154-7e-3 -4.7-0.205-5.539-1.38-5.834-0.858-0.215-0.92-0.466-1.096-4.412-0.192-4.32-0.589-5.427-1.949-5.427-0.618 0-0.75-0.388-0.851-2.5-0.114-2.396-0.165-2.505-1.219-2.627-1.063-0.122-1.1-0.207-1.1-2.51 0-2.328-0.028-2.389-1.2-2.623-1.067-0.213-1.201-0.401-1.205-1.69-0.01-2.408-0.383-3.25-1.442-3.25-0.749 0-0.953-0.213-0.953-0.996 0-0.699-0.417-1.267-1.395-1.9-1.192-0.772-1.396-1.128-1.4-2.439-4e-3 -1.33-0.162-1.594-1.186-1.98-0.819-0.309-1.218-0.759-1.3-1.466-0.089-0.765-0.381-1.049-1.173-1.141-0.799-0.093-1.111-0.401-1.285-1.272-0.178-0.891-0.481-1.179-1.345-1.278-0.873-0.1-1.143-0.362-1.24-1.201-0.092-0.797-0.405-1.136-1.21-1.313-0.598-0.131-1.262-0.638-1.476-1.126-0.261-0.595-0.936-1.009-2.043-1.255-1.169-0.26-1.85-0.699-2.323-1.5-0.494-0.836-0.978-1.133-1.847-1.133-0.885 0-1.177-0.186-1.177-0.751 0-1.063-0.725-1.533-2.853-1.85-1.382-0.206-1.959-0.506-2.266-1.181-0.44-0.967-1.882-1.418-4.531-1.418-1.111 0-1.55-0.17-1.55-0.6 0-0.526-2.756-0.6-22.4-0.6s-22.4 0.074-22.4 0.6m28.2 24.155c2.648 0.205 4.609 0.59 5.8 1.138 0.99 0.456 2.542 1.027 3.448 1.269s2.076 0.762 2.6 1.155 1.433 0.922 2.02 1.176c2.165 0.934 10.317 8.94 11.149 10.949 0.264 0.637 0.645 1.158 0.846 1.158s0.721 0.829 1.155 1.841c0.434 1.013 1.13 2.275 1.547 2.805 0.416 0.53 0.98 1.906 1.252 3.059 0.272 1.152 0.807 2.545 1.189 3.095 0.381 0.55 0.919 2.35 1.193 4 0.275 1.65 0.906 4.35 1.403 6s1.12 4.163 1.384 5.584 0.746 3.098 1.072 3.727c0.325 0.629 0.844 2.464 1.152 4.077 0.309 1.613 0.913 3.625 1.343 4.472 0.431 0.847 0.998 2.613 1.261 3.924 0.262 1.311 0.728 2.765 1.033 3.232 0.305 0.466 0.895 2.093 1.31 3.616 0.415 1.522 1.135 3.524 1.599 4.449 0.464 0.924 0.846 2.004 0.849 2.4 3e-3 0.395 0.527 1.749 1.166 3.007 0.638 1.259 1.285 2.879 1.437 3.6 0.152 0.722 0.776 2.212 1.387 3.312 0.61 1.1 1.226 2.657 1.368 3.46s0.514 1.672 0.827 1.932 0.783 1.133 1.044 1.94 1.171 2.928 2.021 4.713c0.85 1.784 1.545 3.421 1.545 3.638 0 0.216 0.342 0.703 0.76 1.081 0.419 0.379 0.869 1.262 1 1.962 0.132 0.701 0.682 1.788 1.223 2.416 0.541 0.629 1.193 1.799 1.449 2.6 0.257 0.802 0.775 1.818 1.153 2.258 0.377 0.44 0.933 1.43 1.236 2.2 0.302 0.77 0.961 2.01 1.464 2.756s0.915 1.605 0.915 1.909c0 0.305 0.63 1.47 1.4 2.59 0.77 1.119 1.4 2.271 1.4 2.559 0 0.289 0.452 1.062 1.005 1.72 0.553 0.657 1.263 1.81 1.577 2.562 0.315 0.752 0.852 1.6 1.195 1.885 0.343 0.284 0.623 0.738 0.623 1.008s0.525 1.216 1.167 2.101c0.641 0.886 1.536 2.308 1.987 3.16 0.452 0.853 1.371 2.18 2.041 2.95l1.219 1.4 1.222-1.4c0.672-0.77 1.506-1.939 1.854-2.597 0.347-0.659 1.639-2.435 2.871-3.947 1.231-1.512 2.509-3.133 2.839-3.603 0.869-1.236 7.568-7.844 9.381-9.253 4.389-3.412 6.041-4.602 6.411-4.616 0.224-9e-3 1.031-0.549 1.793-1.2s1.578-1.184 1.813-1.184c0.236 0 1.407-0.63 2.602-1.4s2.452-1.4 2.794-1.4c0.341 0 1.247-0.419 2.013-0.931s2.293-1.174 3.393-1.47 2.38-0.782 2.845-1.079 2.085-0.799 3.6-1.115 3.925-0.952 5.355-1.414c6.324-2.043 37.951-2.012 40.609 0.04 0.225 0.174 1.845 0.701 3.6 1.171 1.755 0.471 3.461 1.082 3.791 1.359s1.441 0.813 2.468 1.192c1.028 0.379 2.094 0.96 2.369 1.291 0.274 0.331 1.137 0.869 1.917 1.195 0.78 0.325 1.514 0.734 1.632 0.907s0.922 0.79 1.787 1.371c3.607 2.422 12.627 12.272 12.627 13.789 0 0.238 0.417 0.941 0.927 1.563s1.168 1.761 1.462 2.531 0.849 1.94 1.233 2.6 0.99 2.37 1.348 3.8 0.902 3.14 1.209 3.8c2.218 4.763 1.939 29.509-0.384 34.135-0.547 1.09-0.995 2.201-0.995 2.469 0 0.575-2.435 4.028-4.178 5.925-3.64 3.96-10.219 7.329-14.825 7.59-4.451 0.252-4.129 1.676-4.273-18.839-0.107-15.037-0.209-17.563-0.724-17.889-1.133-0.715-39.869-0.494-42.413 0.242-1.203 0.348-3.537 0.998-5.187 1.443-1.65 0.446-3.273 1.051-3.607 1.345s-1.324 0.86-2.2 1.257c-3.356 1.523-12.593 9.559-12.593 10.957 0 0.167-0.417 0.812-0.927 1.434s-1.171 1.761-1.47 2.531c-0.298 0.77-0.869 1.874-1.267 2.454-0.876 1.274-1.696 4.855-1.39 6.068 0.364 1.44 12.367 13.904 20.254 21.034 2.09 1.889 4.43 4.043 5.2 4.787s2.03 1.822 2.8 2.397 1.804 1.408 2.298 1.852c2.331 2.098 3.684 3.193 9.036 7.318 1.064 0.819 2.377 1.895 2.918 2.39s1.158 0.9 1.37 0.9 0.969 0.559 1.682 1.241c0.713 0.683 1.926 1.564 2.696 1.958s1.743 1.095 2.162 1.558c0.419 0.464 1.003 0.843 1.297 0.843s0.759 0.36 1.034 0.8 0.712 0.8 0.973 0.8c0.26 0 1.311 0.64 2.336 1.422 1.025 0.783 2.254 1.577 2.731 1.766s1.227 0.629 1.667 0.979c1.612 1.281 6.376 4.233 6.832 4.233 0.259 0 0.706 0.284 0.994 0.631s1.414 1.082 2.502 1.634c1.087 0.551 2.179 1.174 2.425 1.384 0.526 0.45 3.169 1.875 6.217 3.351 1.193 0.579 2.596 1.387 3.118 1.798s1.457 0.858 2.077 0.994 1.503 0.598 1.963 1.026c0.459 0.429 1.699 1.072 2.754 1.43s2.346 0.988 2.87 1.4 1.621 0.929 2.437 1.149c0.817 0.22 1.902 0.761 2.411 1.203s1.663 0.993 2.563 1.226 2.087 0.744 2.637 1.135c0.55 0.392 1.72 0.947 2.6 1.233s2.41 0.931 3.4 1.433c0.99 0.503 2.61 1.141 3.6 1.419s2.223 0.827 2.741 1.219c0.517 0.393 1.597 0.834 2.4 0.981 0.802 0.147 2.28 0.693 3.283 1.213s2.887 1.222 4.188 1.561 2.64 0.855 2.976 1.148c0.337 0.293 1.602 0.752 2.812 1.022 1.21 0.269 3.1 0.896 4.2 1.394 1.1 0.497 3.069 1.13 4.375 1.405 1.306 0.276 3.016 0.833 3.8 1.237 0.784 0.405 2.531 0.912 3.883 1.126 1.353 0.215 3.305 0.775 4.338 1.246s2.829 1.011 3.989 1.2c2.674 0.435 5.497 1.186 6.015 1.6 0.22 0.176 2.2 0.621 4.4 0.99 2.2 0.368 4.379 0.914 4.842 1.212 0.462 0.298 1.542 0.673 2.4 0.834 2.415 0.452 5.393 1.985 9.6 4.942 5.72 4.02 11.521 11.768 13.344 17.824 0.265 0.88 0.801 2.32 1.191 3.2 1.507 3.398 1.31 16.288-0.302 19.844-0.438 0.966-1.003 2.476-1.254 3.356-0.458 1.601-2.502 5.454-4.466 8.421-3.507 5.295-12.316 11.949-18.063 13.644-1.15 0.339-2.295 0.782-2.543 0.984-1.487 1.212-63.276 1.556-71.949 0.401-1.54-0.205-4.87-0.649-7.4-0.986s-6.49-0.813-8.8-1.057c-2.31-0.245-5.01-0.691-6-0.992s-3.33-0.75-5.2-0.998-4.48-0.731-5.8-1.074-4.29-1.031-6.6-1.53c-2.31-0.498-4.721-1.115-5.357-1.371s-2.717-0.813-4.623-1.238c-1.906-0.424-3.996-1.048-4.643-1.386-0.647-0.337-1.807-0.72-2.577-0.849-1.685-0.283-5.243-1.363-5.8-1.76-0.22-0.157-1.3-0.523-2.4-0.813-1.1-0.291-2.9-0.925-4-1.41s-2.537-1.009-3.194-1.165c-1.507-0.358-7.414-2.787-9.865-4.058-1.022-0.53-2.112-0.963-2.421-0.963-0.31 0-1.453-0.431-2.541-0.957-1.089-0.526-3.779-1.794-5.979-2.816-2.2-1.023-4.27-2.022-4.6-2.221s-2.4-1.282-4.6-2.406c-2.2-1.125-5.26-2.753-6.8-3.618-1.54-0.866-3.822-2.112-5.071-2.769s-2.385-1.38-2.524-1.605c-0.139-0.226-1.053-0.774-2.029-1.219-0.977-0.445-1.776-0.964-1.776-1.153 0-0.19-0.675-0.665-1.5-1.056-1.456-0.69-6.096-3.691-6.5-4.203-0.11-0.139-0.681-0.506-1.268-0.815-2.102-1.105-13.437-9.349-16.332-11.878-0.55-0.48-2.17-1.791-3.6-2.912-2.46-1.929-5.558-4.544-8.023-6.772-0.608-0.55-2.403-2.17-3.989-3.6-3.721-3.356-11.096-10.693-16.237-16.154-3.925-4.169-4.091-4.293-5.419-4.044-2.108 0.395-6.671 4.441-9.245 8.198-0.679 0.99-1.356 1.89-1.504 2s-0.662 1.093-1.141 2.185c-0.48 1.092-1.115 2.262-1.411 2.6s-0.837 1.695-1.204 3.015c-0.366 1.32-0.972 3.12-1.346 4-0.841 1.976-1.292 43.549-0.481 44.36 0.302 0.303 5.886 0.476 17.906 0.556 20.253 0.135 18.894-0.152 18.894 3.992 0 4.036-2.439 9.216-6.554 13.922-1.966 2.247-5.934 5.052-8.146 5.756-0.935 0.298-1.7 0.671-1.7 0.829 0 1.924-29.839 2.101-33.594 0.199-0.553-0.28-2.148-0.795-3.544-1.145-1.396-0.349-3.161-1.002-3.923-1.452-0.761-0.449-1.599-0.82-1.862-0.824-0.422-6e-3 -5.838-3.06-6.877-3.878-0.221-0.173-1.121-0.851-2-1.505-1.65-1.228-2.127-1.648-5.068-4.473-2.774-2.663-7.532-8.679-7.532-9.523 0-0.269-0.45-1.013-1-1.652-0.549-0.639-0.999-1.303-1-1.475 0-0.172-0.63-1.611-1.4-3.198-0.77-1.588-1.4-3.17-1.4-3.518 0-0.347-0.449-1.916-0.998-3.487-2.194-6.279-2.313-33.935-0.175-40.531 0.455-1.404 1.005-3.633 1.222-4.953s0.814-3.3 1.327-4.4c0.514-1.1 1.068-2.63 1.232-3.4 0.165-0.77 0.725-2.027 1.246-2.793 0.52-0.766 0.946-1.686 0.946-2.044s0.417-1.266 0.927-2.018c0.51-0.751 1.353-2.218 1.873-3.26 0.52-1.041 1.273-2.189 1.673-2.551s0.727-0.859 0.727-1.104c0-0.405 1.225-2.12 4.6-6.442 4.576-5.86 14.179-13.949 20.468-17.241 2.886-1.51 3.171-2.961 1.157-5.885-0.784-1.138-1.425-2.279-1.425-2.535s-0.417-0.974-0.927-1.596-1.169-1.761-1.466-2.531c-0.296-0.77-0.761-1.67-1.034-2-0.272-0.33-1.5-2.559-2.729-4.954-1.229-2.394-2.392-4.554-2.583-4.8-0.192-0.245-0.683-1.346-1.092-2.446-0.408-1.1-1.064-2.349-1.456-2.775-0.392-0.427-0.713-1.035-0.713-1.351s-0.562-1.677-1.248-3.025c-0.687-1.347-1.504-3.304-1.816-4.349s-0.712-1.9-0.888-1.9c-0.177 0-0.653-1.125-1.057-2.5-0.405-1.375-1.063-2.976-1.461-3.558-0.399-0.583-1.016-2.194-1.372-3.581-0.355-1.388-0.899-2.909-1.208-3.381s-0.837-1.92-1.173-3.219-0.961-3.087-1.388-3.975-0.96-2.58-1.184-3.761-0.689-2.705-1.033-3.386c-0.345-0.682-0.952-2.78-1.349-4.663-0.398-1.883-1.013-3.984-1.368-4.669-0.354-0.685-0.923-3.014-1.265-5.176-0.341-2.162-0.905-4.542-1.251-5.288-0.347-0.746-0.792-2.636-0.988-4.2-0.408-3.236-0.859-5.709-1.724-9.443-0.331-1.43-0.788-4.67-1.015-7.2-0.226-2.53-0.592-5.59-0.812-6.8-1-5.491-1.186-7.714-1.578-18.8-0.932-26.309-0.426-58.851 0.956-61.578 0.285-0.562 0.92-2.166 1.411-3.565 0.492-1.399 1.325-3.179 1.852-3.956 0.528-0.777 0.959-1.577 0.959-1.778 0-1.622 11.075-12.723 12.692-12.723 0.184 0 1.313-0.63 2.508-1.4s2.489-1.4 2.875-1.4 1.742-0.482 3.013-1.071c3.324-1.539 9.049-1.999 17.112-1.374" fill="#070504"/><path d="m213.17 126.56c-0.25 0.24-6.634 1.027-13.075 1.612-3.904 0.354-5.928 0.709-6.4 1.122-0.808 0.705-2.761 1.329-5.288 1.689-0.987 0.141-2.157 0.596-2.6 1.011-0.442 0.415-1.695 0.991-2.784 1.28s-2.373 0.918-2.855 1.398c-0.482 0.481-1.536 0.998-2.343 1.149-0.867 0.163-1.71 0.645-2.06 1.18-0.326 0.497-1.111 1.008-1.744 1.134-0.634 0.127-1.752 0.754-2.485 1.393-0.733 0.64-1.729 1.287-2.213 1.437-0.483 0.151-0.987 0.617-1.12 1.034s-0.601 0.873-1.041 1.013c-1.107 0.351-11.395 10.584-11.729 11.667-0.149 0.483-0.622 0.99-1.05 1.126-0.429 0.137-0.78 0.541-0.78 0.899s-0.49 1.163-1.089 1.788-1.367 1.895-1.707 2.822c-0.355 0.967-0.999 1.853-1.511 2.08-0.491 0.217-0.893 0.616-0.893 0.886 0 0.662-1.516 1.434-2.374 1.21-0.527-0.138-0.693 0.07-0.693 0.873 0 0.58-0.501 2.04-1.114 3.245-1.804 3.545-3.784 9.51-4.844 14.591-0.367 1.76-0.843 3.92-1.058 4.8s-0.509 11.896-0.654 24.481c-0.206 17.949-0.375 22.992-0.782 23.4-0.408 0.407-5.484 0.575-23.6 0.778-12.695 0.142-23.801 0.433-24.681 0.646-0.88 0.214-2.95 0.692-4.6 1.064-4.255 0.958-12.872 3.807-13.686 4.525-0.397 0.35-1.113 0.523-1.7 0.411-0.919-0.176-1.014-0.071-1.014 1.121 0 1.504-1.496 2.974-3.027 2.974-0.552 0-1.016 0.304-1.161 0.761-0.219 0.69-2.401 2.039-3.298 2.039-0.2 0-0.882 0.54-1.514 1.2s-1.447 1.2-1.811 1.2c-0.363 0-0.866 0.45-1.116 1-0.251 0.55-0.759 1-1.128 1-0.794 0-11.162 10.393-11.532 11.559-0.14 0.44-0.604 0.911-1.033 1.047-0.428 0.136-0.899 0.728-1.046 1.316-0.148 0.588-0.667 1.382-1.155 1.766-0.487 0.383-1.191 1.458-1.563 2.388s-1.002 1.919-1.4 2.198c-0.398 0.278-0.846 1.161-0.996 1.961s-0.666 1.848-1.147 2.33c-0.48 0.482-1.109 1.766-1.398 2.855s-0.852 2.34-1.252 2.78-0.918 1.912-1.151 3.272c-0.232 1.36-0.864 3.43-1.404 4.6-0.743 1.612-1.044 3.117-1.241 6.204-0.143 2.241-0.545 6.111-0.894 8.6-0.864 6.173-1.108 13.185-0.567 16.324 0.817 4.746 1.634 11.081 1.634 12.674 0 1.04 0.332 2.021 0.983 2.903 0.541 0.733 1.192 2.341 1.448 3.574 0.267 1.287 0.773 2.457 1.187 2.746 0.396 0.278 0.94 1.18 1.209 2.004 0.268 0.825 1.002 2.09 1.63 2.813 0.629 0.723 1.143 1.581 1.143 1.908 0 0.328 0.45 0.8 1 1.051 0.55 0.25 1 0.684 1 0.963 0 0.611 5.744 6.564 6.333 6.564 0.227 0 0.797 0.54 1.267 1.2s1.171 1.2 1.558 1.2c0.386 0 1.1 0.423 1.586 0.941 0.486 0.517 1.61 1.18 2.499 1.473 0.888 0.293 1.838 0.852 2.11 1.241 0.273 0.389 1.385 0.905 2.472 1.146 1.086 0.241 2.612 0.856 3.39 1.368 1.091 0.717 2.42 1.038 5.8 1.4 2.412 0.258 5.375 0.627 6.585 0.821 2.813 0.45 14.779 0.457 17.4 0.011 1.1-0.187 3.405-0.553 5.123-0.812 2.368-0.358 3.357-0.705 4.09-1.438 0.532-0.532 1.506-1.075 2.165-1.207 0.682-0.136 1.302-0.566 1.439-0.996 0.132-0.416 0.732-1.011 1.333-1.322 0.602-0.311 1.305-1.03 1.564-1.596 0.258-0.567 0.739-1.03 1.07-1.03 0.33 0 0.721-0.495 0.868-1.1s0.78-1.756 1.407-2.558c0.628-0.801 1.141-1.822 1.141-2.269s0.21-1.723 0.467-2.836c0.348-1.506 0.352-2.276 0.018-3.01l-0.449-0.986-16.718-0.121c-18.361-0.132-18.055-0.09-18.869-2.595-1.57-4.835 0.081-47.851 1.905-49.627 0.395-0.384 0.949-1.55 1.232-2.59 0.283-1.041 0.786-2.119 1.119-2.395 0.332-0.276 0.948-1.302 1.367-2.281 0.757-1.767 1.038-2.139 3.645-4.832 0.745-0.77 1.468-1.715 1.607-2.1 0.138-0.385 0.514-0.7 0.836-0.7s0.97-0.54 1.439-1.199c0.47-0.66 1.286-1.307 1.813-1.44 0.528-0.132 1.063-0.566 1.189-0.964 0.292-0.92 0.959-1.166 3.966-1.465 1.338-0.133 2.632-0.397 2.875-0.588 0.243-0.19 2.403-1.02 4.8-1.845l4.358-1.499h69.246l1.377 1.144c0.757 0.629 2.097 1.8 2.977 2.6 2.839 2.584 6.336 5.45 9 7.378 1.43 1.034 2.785 2.03 3.01 2.211 0.226 0.182 0.946 0.673 1.6 1.09 0.655 0.418 2.27 1.576 3.59 2.573s3.2 2.332 4.179 2.966c0.978 0.635 1.968 1.315 2.2 1.513 0.231 0.198 1.861 1.198 3.621 2.223s3.29 1.98 3.4 2.122c0.11 0.143 1.01 0.714 2 1.27s2.97 1.686 4.4 2.51c6.664 3.842 24.067 12.6 25.037 12.6 0.157 0 1.428 0.54 2.825 1.2s2.728 1.2 2.958 1.2 1.175 0.374 2.099 0.831c0.925 0.458 2.694 1.163 3.931 1.568 1.238 0.405 3.128 1.093 4.2 1.53 1.073 0.436 2.85 1.019 3.95 1.294 1.1 0.276 2.536 0.769 3.191 1.097 0.655 0.327 2.569 0.929 4.252 1.338 1.684 0.408 3.694 1.007 4.467 1.33 0.774 0.323 2.82 0.873 4.548 1.222 1.728 0.348 3.862 0.886 4.742 1.195s3.4 0.848 5.6 1.197 4.92 0.894 6.044 1.211 5.084 0.93 8.8 1.363c3.716 0.432 8.556 1.074 10.756 1.425s5.346 0.585 6.992 0.519c3.32-0.133 2.945 0.223 3.992-3.802 0.241-0.925 0.662-1.915 0.937-2.2s0.859-1.095 1.298-1.799c0.439-0.705 1.874-2.055 3.19-3l2.391-1.719h10.079l1.926 1.5c1.059 0.825 2.032 1.501 2.161 1.502 0.738 6e-3 3.702 5.324 3.993 7.166 0.441 2.788-0.241 2.609 10.774 2.832 12.598 0.255 11.793 0.841 10.539-7.666-0.42-2.856-0.936-4.951-1.328-5.4-0.881-1.009-1.544-2.353-1.544-3.132 0-0.357-0.63-1.475-1.4-2.484-0.77-1.008-1.4-2.006-1.4-2.218s-0.45-0.739-1-1.171c-0.55-0.433-1-1.048-1-1.367 0-0.318-0.43-0.775-0.956-1.015-0.526-0.239-1.152-0.865-1.391-1.391-0.24-0.526-0.704-0.956-1.032-0.956-0.329 0-0.996-0.54-1.484-1.2s-1.186-1.2-1.55-1.2c-0.365 0-1.005-0.378-1.424-0.841-0.912-1.008-2.663-1.959-3.605-1.959-0.376 0-1.239-0.419-1.92-0.932-0.874-0.657-2.223-1.068-4.586-1.397-1.841-0.256-3.911-0.81-4.6-1.232s-2.332-0.883-3.652-1.025c-3.647-0.392-6.171-1.033-6.519-1.655-0.195-0.349-1.566-0.718-3.629-0.976-3.055-0.383-4.701-0.911-5.281-1.691-0.125-0.17-1.6-0.547-3.275-0.838-1.676-0.292-3.553-0.87-4.172-1.286-0.618-0.415-2.33-0.964-3.804-1.22s-3.203-0.837-3.842-1.292c-0.639-0.456-1.953-0.947-2.92-1.092s-2.658-0.761-3.758-1.368-2.868-1.227-3.929-1.379c-1.061-0.151-2.249-0.595-2.64-0.986-0.793-0.793-2.926-1.631-4.153-1.631-0.441 0-1.392-0.45-2.114-1-0.721-0.55-1.661-1-2.088-1-1.06 0-3.431-1.023-4.022-1.735-0.265-0.32-1.145-0.706-1.954-0.857-1.733-0.325-3.7-1.277-3.7-1.79 0-0.198-1-0.584-2.223-0.858-1.277-0.286-2.376-0.784-2.584-1.172-0.198-0.371-1.223-0.907-2.277-1.19-1.054-0.284-2.366-0.92-2.916-1.415-0.55-0.494-1.589-1.023-2.31-1.175-0.72-0.152-1.805-0.693-2.41-1.202-0.606-0.51-1.865-1.133-2.798-1.384-0.934-0.251-1.919-0.814-2.19-1.25-0.27-0.436-1.212-0.983-2.092-1.217-0.88-0.233-2.05-0.837-2.6-1.341-0.55-0.505-1.674-1.133-2.499-1.396-0.824-0.264-1.724-0.796-2-1.184-0.275-0.388-0.982-0.824-1.57-0.969-0.588-0.146-1.58-0.694-2.204-1.219-0.623-0.525-1.793-1.23-2.598-1.566-0.806-0.337-1.653-0.964-1.883-1.393-0.229-0.43-0.949-0.888-1.599-1.018s-1.781-0.762-2.514-1.405-1.693-1.236-2.133-1.319c-0.44-0.082-0.971-0.538-1.18-1.013-0.211-0.479-0.884-0.965-1.51-1.09-0.622-0.124-1.603-0.698-2.18-1.276-0.577-0.577-1.576-1.233-2.218-1.457-0.643-0.224-1.332-0.835-1.531-1.358-0.213-0.56-0.687-0.951-1.155-0.951-0.436 0-1.206-0.416-1.71-0.924s-1.681-1.41-2.616-2.005-1.7-1.226-1.7-1.403c0-0.176-0.63-0.62-1.4-0.987-0.77-0.368-1.4-0.945-1.4-1.285 0-0.363-0.487-0.713-1.188-0.854-0.67-0.134-1.293-0.566-1.427-0.99-0.132-0.414-0.617-0.955-1.079-1.202-1.228-0.657-5.681-4.298-8.256-6.75-0.577-0.55-1.41-1.183-1.85-1.407s-0.973-0.799-1.185-1.278-0.785-0.971-1.274-1.094c-0.488-0.123-1.002-0.584-1.143-1.026-0.14-0.442-0.769-1.07-1.398-1.395s-1.253-0.935-1.386-1.356c-0.133-0.42-0.683-0.875-1.222-1.01-0.587-0.148-1.076-0.631-1.221-1.205-0.144-0.575-0.633-1.058-1.22-1.206-0.547-0.137-1.152-0.698-1.37-1.273-0.215-0.565-0.756-1.123-1.202-1.24-0.446-0.116-1.072-0.716-1.391-1.332-0.318-0.617-0.941-1.236-1.383-1.376-0.442-0.141-0.909-0.678-1.039-1.194-0.137-0.547-0.635-1.039-1.195-1.179-0.561-0.141-1.057-0.633-1.196-1.185-0.13-0.519-0.676-1.144-1.214-1.389-0.537-0.245-1.143-0.882-1.346-1.416s-0.73-1.085-1.172-1.225c-0.441-0.14-0.907-0.585-1.035-0.988s-0.742-1.267-1.366-1.919c-1.259-1.317-1.242-4.12 0.033-5.605 0.332-0.386 0.842-1.602 1.134-2.702s0.949-2.396 1.461-2.881c0.511-0.484 0.93-1.23 0.93-1.658 0-0.427 0.56-1.376 1.244-2.108s1.401-1.745 1.593-2.249c0.192-0.505 0.802-1.091 1.356-1.301 0.614-0.234 1.007-0.696 1.007-1.185 0-0.529 0.352-0.891 1.029-1.061 0.58-0.146 1.193-0.688 1.404-1.244 0.206-0.542 0.913-1.189 1.572-1.437 0.658-0.249 1.285-0.729 1.393-1.068 0.107-0.339 0.962-0.945 1.899-1.347 0.936-0.402 2.063-1.064 2.503-1.471s1.7-0.976 2.8-1.263c1.1-0.288 2.347-0.837 2.77-1.22 1.922-1.739 43.736-3.39 48.712-1.923 2.869 0.846 2.718-0.186 2.718 18.58v16.908l1.071 0.487c1.55 0.707 6.204-0.152 8.529-1.573 0.99-0.605 2.205-1.222 2.7-1.37 0.495-0.149 0.9-0.51 0.9-0.803 0-0.294 0.63-0.906 1.4-1.36s1.4-1.106 1.4-1.448 0.45-0.827 1-1.078c0.607-0.276 1-0.787 1-1.3 0-0.465 0.52-1.475 1.155-2.246 0.82-0.994 1.279-2.151 1.585-3.991 0.238-1.424 0.708-3.85 1.046-5.39 0.803-3.659 0.802-12.915-2e-3 -17.2-0.33-1.76-0.807-5.085-1.059-7.389-0.335-3.049-0.66-4.404-1.195-4.978-0.738-0.793-1.524-3.022-1.528-4.336-1e-3 -0.386-0.452-1.094-1.002-1.572s-1-1.186-1-1.574c0-0.387-0.18-0.815-0.4-0.951s-0.4-0.526-0.4-0.866-0.426-0.954-0.948-1.364c-0.521-0.41-1.052-1.268-1.179-1.906-0.143-0.713-0.547-1.242-1.051-1.374-0.45-0.118-0.942-0.546-1.093-0.952-0.34-0.914-5.929-6.538-6.497-6.538-0.228 0-0.708-0.45-1.069-1-0.36-0.55-0.91-1-1.222-1-0.313 0-1.057-0.498-1.654-1.106-0.598-0.608-1.865-1.361-2.816-1.674-0.951-0.312-1.947-0.879-2.213-1.259-0.267-0.381-1.199-0.818-2.072-0.971-0.872-0.154-2.396-0.746-3.386-1.316-1.358-0.781-2.832-1.157-6-1.528-2.31-0.271-5.91-0.771-8-1.112-3.366-0.549-13.596-0.894-14.033-0.473" fill="#faba04"/><path d="m59.6 26.285c-0.77 0.09-2.48 0.491-3.8 0.891-1.32 0.401-3.336 0.856-4.479 1.011-1.281 0.174-2.442 0.619-3.025 1.159-0.52 0.482-1.744 1.133-2.721 1.448-0.976 0.314-1.919 0.804-2.095 1.089-0.176 0.284-0.832 0.782-1.457 1.105-1.257 0.65-6.823 5.737-6.823 6.236 0 0.173-0.495 0.851-1.1 1.507-1.943 2.108-2.957 3.642-3.352 5.072-0.212 0.768-0.807 1.851-1.322 2.407-0.631 0.68-1.027 1.733-1.213 3.223-0.152 1.217-0.643 3.417-1.092 4.89-1.472 4.827-1.415 48.117 0.08 61.277 0.213 1.87 0.64 7.27 0.951 12 0.31 4.73 0.776 9.14 1.035 9.8 0.66 1.682 1.109 4.243 1.612 9.19 0.238 2.345 0.759 5.106 1.158 6.137 0.398 1.03 0.949 3.583 1.224 5.673s0.839 4.557 1.253 5.482 0.954 2.995 1.2 4.6 0.871 3.851 1.389 4.992c0.519 1.141 1.066 3.031 1.217 4.2s0.696 2.938 1.21 3.931 1.117 2.767 1.34 3.941c0.223 1.175 0.752 2.792 1.175 3.595 0.924 1.748 1.635 3.895 1.635 4.935 0 0.417 0.35 1.133 0.778 1.592 0.428 0.46 0.975 1.757 1.215 2.884 0.241 1.126 0.869 2.7 1.395 3.498 0.526 0.797 1.083 2.147 1.237 3 0.153 0.852 0.417 1.73 0.585 1.95 0.822 1.078 1.99 3.504 1.99 4.134 0 0.391 0.455 1.328 1.012 2.082 0.557 0.755 1.226 2.095 1.488 2.978 0.261 0.883 0.799 1.958 1.194 2.389 0.396 0.43 0.893 1.42 1.104 2.2 0.212 0.779 0.812 2.047 1.334 2.817s1.17 2.075 1.44 2.9c0.269 0.825 0.648 1.5 0.84 1.5 0.358 0 1.319 1.886 1.783 3.5 0.142 0.495 0.423 0.9 0.624 0.9 0.434 0 1.981 2.921 1.981 3.741 0 0.315 0.278 0.68 0.618 0.811 0.34 0.13 0.897 0.914 1.237 1.742 1.221 2.97 3.707 4.598 4.874 3.192 0.507-0.612 9.418-3.555 13.671-4.515 1.65-0.373 3.72-0.852 4.6-1.066 0.88-0.213 11.986-0.504 24.681-0.646 18.116-0.203 23.192-0.371 23.6-0.778 0.407-0.408 0.576-5.451 0.782-23.4 0.145-12.585 0.439-23.601 0.654-24.481s0.691-3.04 1.058-4.8 0.917-4.01 1.223-5c1.201-3.895 2.607-7.75 3.12-8.554 2.192-3.438 2.058-5.573-0.533-8.524-0.67-0.763-1.322-1.907-1.449-2.543-0.127-0.635-0.542-1.254-0.922-1.375-0.38-0.12-0.925-0.929-1.212-1.798-0.286-0.868-0.944-1.976-1.461-2.462-0.518-0.486-0.941-1.102-0.941-1.369s-0.63-1.401-1.4-2.52c-0.77-1.12-1.4-2.188-1.4-2.374s-0.535-1.046-1.189-1.91-1.305-2.16-1.446-2.881c-0.142-0.72-0.563-1.53-0.936-1.8-0.373-0.269-0.995-1.29-1.381-2.267-0.387-0.977-1.019-2.237-1.406-2.8-0.386-0.563-0.952-1.653-1.257-2.423-0.306-0.77-0.878-1.75-1.273-2.179-0.395-0.428-0.879-1.362-1.076-2.075s-0.801-1.893-1.343-2.622c-0.542-0.728-1.103-1.945-1.245-2.705-0.143-0.759-0.599-1.749-1.014-2.2-0.414-0.45-1.049-1.701-1.409-2.779-0.361-1.079-0.977-2.429-1.368-3-0.392-0.572-0.942-1.85-1.224-2.84-0.281-0.99-0.735-2.07-1.007-2.4-0.548-0.665-1.235-2.422-1.599-4.09-0.13-0.599-0.663-1.718-1.184-2.485-0.522-0.768-1.075-2.258-1.23-3.311-0.154-1.053-0.618-2.278-1.03-2.722s-1.004-1.901-1.316-3.238c-0.312-1.336-0.882-2.91-1.267-3.498s-0.952-2.267-1.259-3.731c-0.306-1.465-0.737-2.879-0.956-3.143-0.498-0.6-1.429-3.807-1.795-6.182-0.152-0.99-0.505-2.07-0.783-2.4-0.676-0.802-1.292-2.919-1.627-5.6-0.151-1.21-0.622-2.884-1.045-3.719-0.424-0.835-0.965-2.995-1.201-4.8-0.237-1.805-0.795-4.181-1.239-5.281-0.445-1.1-1.056-3.056-1.358-4.347s-0.879-2.821-1.282-3.4-0.941-1.667-1.195-2.417c-0.255-0.751-0.913-1.954-1.462-2.674s-0.998-1.474-0.998-1.677c0-0.73-6.887-8.027-8.6-9.112-0.66-0.417-1.435-1.077-1.723-1.466-0.287-0.389-0.841-0.707-1.231-0.707s-1.505-0.524-2.477-1.165c-1.03-0.678-2.604-1.279-3.769-1.437-1.1-0.15-3.17-0.598-4.6-0.996-2.705-0.752-7.584-1.2-10-0.917" fill="#f8d079"/><path d="m56.2 24.788c-1.702 0.165-3.707 0.691-5.112 1.341-1.271 0.589-2.627 1.071-3.013 1.071s-1.68 0.63-2.875 1.4-2.324 1.4-2.508 1.4c-1.617 0-12.692 11.101-12.692 12.723 0 0.201-0.431 1.001-0.959 1.778-0.527 0.777-1.36 2.557-1.852 3.956-0.491 1.399-1.126 3.003-1.411 3.565-1.382 2.727-1.888 35.269-0.956 61.578 0.392 11.086 0.578 13.309 1.578 18.8 0.22 1.21 0.586 4.27 0.812 6.8 0.227 2.53 0.684 5.77 1.015 7.2 0.865 3.734 1.316 6.207 1.724 9.443 0.196 1.564 0.641 3.454 0.988 4.2 0.346 0.746 0.91 3.126 1.251 5.288 0.342 2.162 0.911 4.491 1.265 5.176 0.355 0.685 0.97 2.786 1.368 4.669 0.397 1.883 1.004 3.981 1.349 4.663 0.344 0.681 0.809 2.205 1.033 3.386s0.757 2.873 1.184 3.761 1.052 2.676 1.388 3.975 0.864 2.747 1.173 3.219 0.853 1.993 1.208 3.381c0.356 1.387 0.973 2.998 1.372 3.581 0.398 0.582 1.056 2.183 1.461 3.558 0.404 1.375 0.88 2.5 1.057 2.5 0.176 0 0.576 0.855 0.888 1.9s1.129 3.002 1.816 4.349c0.686 1.348 1.248 2.709 1.248 3.025s0.321 0.924 0.713 1.351c0.392 0.426 1.048 1.675 1.456 2.775 0.409 1.1 0.9 2.201 1.092 2.446 0.191 0.246 1.354 2.406 2.583 4.8 1.229 2.395 2.457 4.624 2.729 4.954 0.273 0.33 0.738 1.23 1.034 2 0.297 0.77 0.956 1.909 1.466 2.531s0.927 1.34 0.927 1.596 0.641 1.397 1.425 2.535c2.014 2.924 1.729 4.375-1.157 5.885-6.289 3.292-15.892 11.381-20.468 17.241-3.375 4.322-4.6 6.037-4.6 6.442 0 0.245-0.327 0.742-0.727 1.104s-1.153 1.51-1.673 2.551c-0.52 1.042-1.363 2.509-1.873 3.26-0.51 0.752-0.927 1.66-0.927 2.018s-0.426 1.278-0.946 2.044c-0.521 0.766-1.081 2.023-1.246 2.793-0.164 0.77-0.718 2.3-1.232 3.4-0.513 1.1-1.11 3.08-1.327 4.4s-0.767 3.549-1.222 4.953c-2.138 6.596-2.019 34.252 0.175 40.531 0.549 1.571 0.998 3.14 0.998 3.487 0 0.348 0.63 1.93 1.4 3.518 0.77 1.587 1.4 3.026 1.4 3.198 1e-3 0.172 0.451 0.836 1 1.475 0.55 0.639 1 1.383 1 1.652 0 0.844 4.758 6.86 7.532 9.523 2.941 2.825 3.418 3.245 5.068 4.473 0.879 0.654 1.779 1.332 2 1.505 1.039 0.818 6.455 3.872 6.877 3.878 0.263 4e-3 1.101 0.375 1.862 0.824 0.762 0.45 2.527 1.103 3.923 1.452 1.396 0.35 2.991 0.865 3.544 1.145 3.755 1.902 33.594 1.725 33.594-0.199 0-0.158 0.765-0.531 1.7-0.829 6.912-2.202 14.7-12.628 14.7-19.678 0-4.144 1.359-3.857-18.894-3.992-12.02-0.08-17.604-0.253-17.906-0.556-0.811-0.811-0.36-42.384 0.481-44.36 0.374-0.88 0.98-2.68 1.346-4 0.367-1.32 0.908-2.677 1.204-3.015s0.931-1.508 1.411-2.6c0.479-1.092 0.993-2.075 1.141-2.185s0.825-1.01 1.504-2c2.574-3.757 7.137-7.803 9.245-8.198 1.328-0.249 1.494-0.125 5.419 4.044 5.141 5.461 12.516 12.798 16.237 16.154 1.586 1.43 3.381 3.05 3.989 3.6 2.465 2.228 5.563 4.843 8.023 6.772 1.43 1.121 3.05 2.432 3.6 2.912 2.895 2.529 14.23 10.773 16.332 11.878 0.587 0.309 1.158 0.676 1.268 0.815 0.404 0.512 5.044 3.513 6.5 4.203 0.825 0.391 1.5 0.866 1.5 1.056 0 0.189 0.799 0.708 1.776 1.153 0.976 0.445 1.89 0.993 2.029 1.219 0.139 0.225 1.275 0.948 2.524 1.605s3.531 1.903 5.071 2.769c1.54 0.865 4.6 2.493 6.8 3.618 2.2 1.124 4.27 2.207 4.6 2.406s2.4 1.198 4.6 2.221c2.2 1.022 4.89 2.29 5.979 2.816 1.088 0.526 2.231 0.957 2.541 0.957 0.309 0 1.399 0.433 2.421 0.963 2.451 1.271 8.358 3.7 9.865 4.058 0.657 0.156 2.094 0.68 3.194 1.165s2.9 1.119 4 1.41c1.1 0.29 2.18 0.656 2.4 0.813 0.557 0.397 4.115 1.477 5.8 1.76 0.77 0.129 1.93 0.512 2.577 0.849 0.647 0.338 2.737 0.962 4.643 1.386 1.906 0.425 3.987 0.982 4.623 1.238s3.047 0.873 5.357 1.371c2.31 0.499 5.28 1.187 6.6 1.53s3.93 0.826 5.8 1.074 4.21 0.697 5.2 0.998 3.69 0.747 6 0.992c2.31 0.244 6.27 0.72 8.8 1.057s5.86 0.781 7.4 0.986c8.673 1.155 70.462 0.811 71.949-0.401 0.248-0.202 1.393-0.645 2.543-0.984 5.747-1.695 14.556-8.349 18.063-13.644 1.964-2.967 4.008-6.82 4.466-8.421 0.251-0.88 0.816-2.39 1.254-3.356 1.612-3.556 1.809-16.446 0.302-19.844-0.39-0.88-0.926-2.32-1.191-3.2-1.823-6.056-7.624-13.804-13.344-17.824-4.207-2.957-7.185-4.49-9.6-4.942-0.858-0.161-1.938-0.536-2.4-0.834-0.463-0.298-2.642-0.844-4.842-1.212-2.2-0.369-4.18-0.814-4.4-0.99-0.518-0.414-3.341-1.165-6.015-1.6-1.16-0.189-2.956-0.729-3.989-1.2s-2.985-1.031-4.338-1.246c-1.352-0.214-3.099-0.721-3.883-1.126-0.784-0.404-2.494-0.961-3.8-1.237-1.306-0.275-3.275-0.908-4.375-1.405-1.1-0.498-2.99-1.125-4.2-1.394-1.21-0.27-2.475-0.729-2.812-1.022-0.336-0.293-1.675-0.809-2.976-1.148s-3.185-1.041-4.188-1.561-2.481-1.066-3.283-1.213c-0.803-0.147-1.883-0.588-2.4-0.981-0.518-0.392-1.751-0.941-2.741-1.219s-2.61-0.916-3.6-1.419c-0.99-0.502-2.52-1.147-3.4-1.433s-2.05-0.841-2.6-1.233c-0.55-0.391-1.737-0.902-2.637-1.135s-2.054-0.784-2.563-1.226-1.594-0.983-2.411-1.203c-0.816-0.22-1.913-0.737-2.437-1.149s-1.815-1.042-2.87-1.4-2.295-1.001-2.754-1.43c-0.46-0.428-1.343-0.89-1.963-1.026s-1.555-0.583-2.077-0.994-1.925-1.219-3.118-1.798c-3.048-1.476-5.691-2.901-6.217-3.351-0.246-0.21-1.338-0.833-2.425-1.384-1.088-0.552-2.214-1.287-2.502-1.634s-0.735-0.631-0.994-0.631c-0.456 0-5.22-2.952-6.832-4.233-0.44-0.35-1.19-0.79-1.667-0.979s-1.706-0.983-2.731-1.766c-1.025-0.782-2.076-1.422-2.336-1.422-0.261 0-0.698-0.36-0.973-0.8s-0.74-0.8-1.034-0.8-0.878-0.379-1.297-0.843c-0.419-0.463-1.392-1.164-2.162-1.558s-1.983-1.275-2.696-1.958c-0.713-0.682-1.47-1.241-1.682-1.241s-0.829-0.405-1.37-0.9-1.854-1.571-2.918-2.39c-5.352-4.125-6.705-5.22-9.036-7.318-0.494-0.444-1.528-1.277-2.298-1.852s-2.03-1.653-2.8-2.397-3.11-2.898-5.2-4.787c-7.887-7.13-19.89-19.594-20.254-21.034-0.306-1.213 0.514-4.794 1.39-6.068 0.398-0.58 0.969-1.684 1.267-2.454 0.299-0.77 0.96-1.909 1.47-2.531s0.927-1.267 0.927-1.434c0-1.398 9.237-9.434 12.593-10.957 0.876-0.397 1.866-0.963 2.2-1.257s1.957-0.899 3.607-1.345c1.65-0.445 3.984-1.095 5.187-1.443 2.544-0.736 41.28-0.957 42.413-0.242 0.515 0.326 0.617 2.852 0.724 17.889 0.144 20.515-0.178 19.091 4.273 18.839 4.606-0.261 11.185-3.63 14.825-7.59 1.743-1.897 4.178-5.35 4.178-5.925 0-0.268 0.448-1.379 0.995-2.469 2.323-4.626 2.602-29.372 0.384-34.135-0.307-0.66-0.851-2.37-1.209-3.8s-0.964-3.14-1.348-3.8-0.939-1.83-1.233-2.6-0.952-1.909-1.462-2.531-0.927-1.325-0.927-1.563c0-1.517-9.02-11.367-12.627-13.789-0.865-0.581-1.669-1.198-1.787-1.371s-0.852-0.582-1.632-0.907c-0.78-0.326-1.643-0.864-1.917-1.195-0.275-0.331-1.341-0.912-2.369-1.291-1.027-0.379-2.138-0.915-2.468-1.192s-2.036-0.888-3.791-1.359c-1.755-0.47-3.375-0.997-3.6-1.171-2.658-2.052-34.285-2.083-40.609-0.04-1.43 0.462-3.84 1.098-5.355 1.414s-3.135 0.818-3.6 1.115-1.745 0.783-2.845 1.079-2.627 0.958-3.393 1.47-1.672 0.931-2.013 0.931c-0.342 0-1.599 0.63-2.794 1.4s-2.366 1.4-2.602 1.4c-0.235 0-1.051 0.533-1.813 1.184s-1.569 1.191-1.793 1.2c-0.37 0.014-2.022 1.204-6.411 4.616-1.813 1.409-8.512 8.017-9.381 9.253-0.33 0.47-1.608 2.091-2.839 3.603-1.232 1.512-2.524 3.288-2.871 3.947-0.348 0.658-1.182 1.827-1.854 2.597l-1.222 1.4-1.219-1.4c-0.67-0.77-1.589-2.097-2.041-2.95-0.451-0.852-1.346-2.274-1.987-3.16-0.642-0.885-1.167-1.831-1.167-2.101s-0.28-0.724-0.623-1.008c-0.343-0.285-0.88-1.133-1.195-1.885-0.314-0.752-1.024-1.905-1.577-2.562-0.553-0.658-1.005-1.431-1.005-1.72 0-0.288-0.63-1.44-1.4-2.559-0.77-1.12-1.4-2.285-1.4-2.59 0-0.304-0.412-1.163-0.915-1.909s-1.162-1.986-1.464-2.756c-0.303-0.77-0.859-1.76-1.236-2.2-0.378-0.44-0.896-1.456-1.153-2.258-0.256-0.801-0.908-1.971-1.449-2.6-0.541-0.628-1.091-1.715-1.223-2.416-0.131-0.7-0.581-1.583-1-1.962-0.418-0.378-0.76-0.865-0.76-1.081 0-0.217-0.695-1.854-1.545-3.638-0.85-1.785-1.76-3.906-2.021-4.713s-0.731-1.68-1.044-1.94-0.685-1.129-0.827-1.932-0.758-2.36-1.368-3.46c-0.611-1.1-1.235-2.59-1.387-3.312-0.152-0.721-0.799-2.341-1.437-3.6-0.639-1.258-1.163-2.612-1.166-3.007-3e-3 -0.396-0.385-1.476-0.849-2.4-0.464-0.925-1.184-2.927-1.599-4.449-0.415-1.523-1.005-3.15-1.31-3.616-0.305-0.467-0.771-1.921-1.033-3.232-0.263-1.311-0.83-3.077-1.261-3.924-0.43-0.847-1.034-2.859-1.343-4.472-0.308-1.613-0.827-3.448-1.152-4.077-0.326-0.629-0.808-2.306-1.072-3.727s-0.887-3.934-1.384-5.584-1.128-4.35-1.403-6c-0.274-1.65-0.812-3.45-1.193-4-0.382-0.55-0.917-1.943-1.189-3.095-0.272-1.153-0.836-2.529-1.252-3.059-0.417-0.53-1.113-1.792-1.547-2.805-0.434-1.012-0.954-1.841-1.155-1.841s-0.582-0.521-0.846-1.158c-0.832-2.009-8.984-10.015-11.149-10.949-0.587-0.254-1.496-0.783-2.02-1.176s-1.694-0.913-2.6-1.155-2.458-0.813-3.448-1.269c-2.726-1.254-10.966-1.766-17.8-1.105m14.295 1.851c0.938 0.335 2.83 0.871 4.205 1.193s3.345 1.121 4.378 1.777c1.033 0.655 2.035 1.191 2.227 1.191 2.44 0 10.695 9.537 14.064 16.248 1.007 2.007 1.831 3.937 1.831 4.289s0.427 1.606 0.949 2.785c0.522 1.18 1.18 3.75 1.463 5.712 0.284 1.961 0.84 4.286 1.237 5.166s0.892 2.68 1.101 4c0.208 1.32 0.683 3.21 1.055 4.2s1.12 3.505 1.661 5.59c0.542 2.084 1.141 3.978 1.333 4.209s0.731 1.855 1.2 3.61c0.468 1.755 1.073 3.551 1.344 3.991s0.735 1.79 1.03 3 0.839 2.65 1.209 3.2 0.984 2.155 1.365 3.567c0.382 1.411 1.012 3.031 1.401 3.6 0.389 0.568 0.93 1.807 1.202 2.754 0.272 0.946 0.934 2.548 1.472 3.559 0.538 1.012 0.978 2.071 0.978 2.355s0.629 1.742 1.398 3.241c0.769 1.498 1.399 3.011 1.4 3.362s0.343 0.947 0.761 1.325c0.417 0.377 0.952 1.454 1.188 2.393 0.237 0.939 0.759 2.143 1.162 2.675 0.402 0.533 1.713 2.905 2.911 5.272 4.255 8.4 4.585 9.026 5.044 9.558 0.256 0.297 0.787 1.349 1.182 2.339 0.394 0.99 1.04 2.149 1.435 2.575 0.396 0.427 0.719 0.969 0.719 1.206 0 0.236 0.63 1.365 1.4 2.509 0.77 1.143 1.4 2.18 1.4 2.304s0.585 1.098 1.3 2.164c0.715 1.067 1.61 2.458 1.989 3.091 0.378 0.633 0.852 1.421 1.053 1.751s0.574 1.05 0.829 1.6c0.256 0.55 1.24 1.891 2.187 2.98l1.722 1.98 1.714-1.78c0.942-0.979 2.058-2.545 2.479-3.48 0.42-0.935 0.897-1.7 1.059-1.7 0.163 0 0.611-0.533 0.996-1.185s0.919-1.418 1.186-1.701 1.142-1.325 1.944-2.315c2.217-2.736 6.266-6.826 8.936-9.026 1.316-1.085 2.745-2.288 3.175-2.673s0.901-0.7 1.047-0.7 0.83-0.54 1.521-1.2 1.492-1.2 1.782-1.2c0.289 0 1.146-0.46 1.903-1.022 0.758-0.561 2.098-1.367 2.978-1.79 0.88-0.422 1.87-0.94 2.2-1.15 1.309-0.833 6.702-3.165 8.4-3.632 0.99-0.272 2.43-0.811 3.2-1.198s2.3-0.824 3.4-0.972c2.664-0.359 5.831-0.975 9-1.75 3.435-0.841 26.364-0.958 29.2-0.15 0.99 0.282 3.42 0.882 5.4 1.332 1.98 0.451 4.77 1.353 6.2 2.005 2.431 1.109 3.086 1.437 6.2 3.104 1.06 0.567 2.438 1.569 6.765 4.921 4.412 3.416 9.695 10.26 12.277 15.902 0.453 0.99 1.259 2.718 1.791 3.84s0.967 2.407 0.967 2.855c0 0.449 0.492 2.411 1.092 4.36 1.083 3.512 1.093 3.652 1.1 15.145l8e-3 11.6-1.386 3.8c-0.762 2.09-1.707 4.149-2.1 4.575-0.393 0.427-0.714 0.985-0.714 1.242 0 0.54-5.423 6.183-5.943 6.183-0.192 0-0.858 0.4-1.48 0.89-2.596 2.041-10.69 4.206-11.42 3.054-0.19-0.299-0.348-8.295-0.351-17.769-6e-3 -16.928-0.02-17.24-0.844-18.124l-0.838-0.899-44.524 0.248-2.942 1.3c-1.618 0.715-3.238 1.313-3.6 1.329s-1.198 0.375-1.858 0.798-1.965 1.123-2.9 1.557c-0.935 0.433-1.7 0.978-1.7 1.212 0 0.233-0.455 0.597-1.011 0.808-1.865 0.709-6.354 5.116-8.414 8.259-0.744 1.134-1.492 2.125-1.664 2.201-1.85 0.822-4.953 10.721-3.961 12.638 1.754 3.393 19.798 21.134 30.541 30.029 0.711 0.588 1.775 1.564 2.366 2.169 0.592 0.605 1.286 1.1 1.543 1.1s0.931 0.495 1.497 1.1 2.045 1.82 3.285 2.7c1.241 0.88 2.827 2.095 3.526 2.7s1.494 1.1 1.767 1.1 0.689 0.358 0.923 0.796 0.974 1.079 1.645 1.426c1.057 0.547 3.924 2.542 5.45 3.793 0.272 0.222 1.154 0.794 1.961 1.27s1.916 1.282 2.465 1.79c0.549 0.509 1.235 0.925 1.525 0.925 0.291 0 1.143 0.54 1.895 1.2s1.523 1.2 1.715 1.2 1.235 0.63 2.318 1.4 2.185 1.4 2.449 1.4c0.265 0 0.681 0.24 0.924 0.534 0.244 0.294 1.301 0.963 2.349 1.487 1.048 0.523 2.415 1.363 3.037 1.865 0.622 0.503 1.355 0.914 1.628 0.914 0.274 0 1.206 0.535 2.07 1.189s1.861 1.194 2.215 1.2 1.344 0.486 2.2 1.068c0.856 0.581 2.276 1.382 3.156 1.781 0.88 0.398 2.05 0.983 2.6 1.3 2.085 1.2 6.796 3.462 7.21 3.462 0.238 0 1.098 0.454 1.911 1.009 0.814 0.554 2.197 1.203 3.075 1.441s2.106 0.796 2.729 1.239c0.623 0.444 1.893 1.036 2.823 1.315 0.929 0.28 2.311 0.888 3.071 1.351 0.759 0.463 1.614 0.843 1.899 0.844 0.286 0 1.865 0.631 3.509 1.401 1.645 0.77 3.26 1.4 3.589 1.4 0.33 0 1.579 0.523 2.778 1.162 1.198 0.64 2.949 1.292 3.892 1.449 0.943 0.158 2.171 0.61 2.73 1.005 0.558 0.395 2.168 1.017 3.576 1.382s3.201 0.98 3.984 1.366c0.783 0.387 2.499 0.935 3.812 1.218s2.774 0.767 3.245 1.076c0.472 0.309 2.17 0.836 3.774 1.17 1.605 0.335 3.654 0.942 4.555 1.35s3.107 1.017 4.902 1.353c1.796 0.336 3.776 0.87 4.4 1.187 0.625 0.316 2.396 0.801 3.936 1.077s4.15 0.914 5.8 1.417 3.587 1.018 4.305 1.143c1.548 0.269 8.095 3.329 8.095 3.783 0 0.173 0.74 0.73 1.644 1.238 1.786 1.005 8.356 7.483 8.356 8.241 0 0.256 0.433 0.933 0.962 1.505 0.53 0.571 1.17 1.666 1.423 2.433s0.802 1.829 1.219 2.36c0.418 0.53 1.059 2.296 1.426 3.925 0.367 1.628 0.892 3.41 1.165 3.96 0.727 1.46 1.076 5.524 0.654 7.6-0.202 0.99-0.73 3.24-1.174 5-0.445 1.76-0.936 4.19-1.092 5.4-0.179 1.389-0.621 2.602-1.199 3.29-0.504 0.6-1.03 1.611-1.17 2.246-0.14 0.636-0.586 1.512-0.991 1.948-0.406 0.435-1.013 1.314-1.349 1.954-1.053 2.003-8.594 9.362-9.593 9.362-0.298 0-0.946 0.43-1.439 0.956-0.494 0.525-1.4 1.056-2.014 1.178-0.614 0.123-1.636 0.658-2.272 1.189-0.696 0.581-1.952 1.077-3.156 1.247-1.1 0.155-3.854 0.644-6.119 1.086-4.451 0.87-45.245 0.876-55.281 8e-3 -2.31-0.199-8.43-0.574-13.6-0.833-5.17-0.258-9.76-0.625-10.2-0.814-0.44-0.19-1.16-0.467-1.6-0.616-1.232-0.418-8.193-1.374-10.11-1.388-0.94-7e-3 -2.74-0.376-4-0.819-1.259-0.444-4.18-1.078-6.49-1.41s-4.83-0.941-5.6-1.352-2.93-0.948-4.8-1.193c-2.035-0.266-4.165-0.832-5.306-1.41-1.062-0.538-3.051-1.089-4.489-1.243-1.42-0.152-2.789-0.526-3.042-0.83-0.514-0.62-4.019-1.756-5.418-1.756-0.5 0-1.531-0.422-2.291-0.938-0.76-0.515-2.522-1.179-3.916-1.475-1.393-0.296-2.876-0.857-3.294-1.247-0.419-0.39-1.59-0.827-2.603-0.971-1.012-0.145-2.624-0.774-3.582-1.398-0.957-0.624-2.526-1.252-3.487-1.396-0.96-0.144-1.963-0.523-2.227-0.842-0.584-0.703-2.959-1.733-3.998-1.733-0.415 0-1.068-0.367-1.451-0.816s-1.619-1.086-2.747-1.414c-1.128-0.329-2.373-0.955-2.767-1.39-0.394-0.436-1.405-0.902-2.246-1.037-0.84-0.134-1.982-0.665-2.537-1.179s-1.756-1.159-2.668-1.432c-0.913-0.273-2.065-0.903-2.561-1.398-0.496-0.496-1.412-1.022-2.036-1.169-0.623-0.148-1.584-0.672-2.134-1.165s-1.465-1.006-2.034-1.139c-0.568-0.134-1.718-0.787-2.555-1.452-0.836-0.665-1.812-1.209-2.167-1.209-0.356 0-1.15-0.534-1.766-1.186-0.615-0.652-1.734-1.301-2.485-1.442-0.804-0.151-1.459-0.55-1.593-0.971-0.124-0.393-0.806-0.949-1.513-1.234-0.708-0.286-2.078-1.115-3.045-1.843-0.966-0.728-1.982-1.324-2.257-1.324s-0.599-0.261-0.722-0.579c-0.122-0.319-0.761-0.858-1.421-1.199-0.659-0.341-1.698-1.083-2.309-1.649-0.61-0.565-1.589-1.124-2.176-1.242-0.598-0.119-1.255-0.629-1.498-1.161-0.237-0.521-0.878-1.06-1.424-1.197s-1.277-0.682-1.623-1.211c-0.347-0.529-0.865-0.962-1.151-0.962-0.287 0-0.958-0.467-1.491-1.038-0.534-0.571-1.508-1.318-2.165-1.659-0.657-0.342-1.674-1.135-2.26-1.762-0.587-0.628-1.325-1.141-1.641-1.141-0.317 0-0.774-0.434-1.015-0.965-0.242-0.531-0.795-1.078-1.229-1.216s-1.079-0.693-1.433-1.235c-0.355-0.541-0.836-0.984-1.068-0.984s-1.188-0.766-2.125-1.702c-0.936-0.937-2.293-2.152-3.015-2.7-1.358-1.032-13.46-13.024-18.919-18.748-4.581-4.803-6.187-4.57-12.408 1.803-3.271 3.352-4.65 5.097-5.806 7.347-0.395 0.77-1.116 2.03-1.601 2.8s-0.883 1.62-0.884 1.888c0 0.269-0.433 1.439-0.96 2.6-1.646 3.624-1.841 6.601-1.841 28.163 0 20.289 0 20.298 0.87 21.223l0.869 0.926h17.098c9.404 0 17.382 0.109 17.73 0.243 0.885 0.339 0.83 3.387-0.095 5.273-0.401 0.816-0.976 2.294-1.278 3.284-0.303 0.99-0.965 2.309-1.472 2.931s-0.922 1.29-0.922 1.486c0 0.508-5.597 5.983-6.116 5.983-0.238 0-0.804 0.33-1.258 0.734s-2.536 1.349-4.626 2.1l-3.8 1.366h-11.2c-9.28 0-11.577-0.114-13.4-0.663-1.21-0.365-3.55-0.958-5.2-1.317-2.672-0.582-4.551-1.309-8.6-3.328-3.923-1.956-5-2.565-5-2.827 0-0.161-0.585-0.631-1.3-1.044-1.186-0.686-3.346-2.392-5.241-4.138-1.606-1.479-5.772-6.354-6.481-7.583-0.413-0.715-0.87-1.3-1.016-1.3s-0.496-0.585-0.777-1.3c-0.282-0.715-0.934-1.873-1.449-2.573-0.515-0.701-0.938-1.511-0.941-1.8-3e-3 -0.29-0.537-1.577-1.188-2.86-0.651-1.282-1.297-2.992-1.436-3.8-0.14-0.807-0.726-3.267-1.303-5.467-1.165-4.441-1.546-24.406-0.562-29.4 0.239-1.21 0.872-4.667 1.406-7.682 0.535-3.015 1.237-5.895 1.56-6.4s0.91-2.088 1.305-3.518c0.394-1.43 1.017-3.05 1.384-3.6 0.368-0.55 0.908-1.72 1.201-2.6 0.294-0.88 0.85-1.96 1.237-2.4 0.386-0.44 0.911-1.453 1.167-2.252 0.255-0.798 0.801-1.756 1.213-2.129 0.411-0.372 0.983-1.249 1.271-1.948s0.935-1.684 1.437-2.189 0.913-1.056 0.913-1.225c0-0.168 0.315-0.657 0.7-1.086 0.385-0.428 1.409-1.659 2.275-2.735 3.183-3.949 9.052-9.457 13.025-12.222 0.77-0.535 1.544-1.208 1.72-1.494s0.536-0.521 0.8-0.521c0.264-1e-3 1.1-0.406 1.858-0.9 0.759-0.495 2.199-1.349 3.2-1.899 2.845-1.562 2.998-5.884 0.29-8.2-0.446-0.381-1.104-1.527-3.433-5.978-0.569-1.088-1.341-2.327-1.715-2.754s-0.789-1.27-0.921-1.873c-0.133-0.603-0.677-1.688-1.21-2.41-0.533-0.723-1.176-1.96-1.429-2.75-0.252-0.789-0.767-1.795-1.145-2.235-0.377-0.44-0.923-1.43-1.212-2.2-0.29-0.77-1.129-2.679-1.865-4.242s-1.338-2.975-1.338-3.138-0.334-0.774-0.742-1.358-0.871-1.602-1.029-2.262-0.791-2.195-1.407-3.411-1.25-2.836-1.409-3.6c-0.16-0.764-0.629-1.977-1.043-2.697-0.414-0.719-1.045-2.339-1.402-3.6-0.358-1.26-0.886-2.666-1.173-3.123-0.288-0.457-0.83-2.077-1.205-3.6s-1.002-3.309-1.393-3.969c-0.392-0.66-0.832-2.01-0.979-3-0.278-1.873-0.712-3.292-1.687-5.506-0.316-0.719-0.803-2.609-1.082-4.2-0.279-1.592-0.797-3.524-1.152-4.294s-0.942-3.192-1.304-5.382-0.909-4.72-1.215-5.623c-0.307-0.903-0.921-4.151-1.366-7.218-0.444-3.068-1.067-6.567-1.383-7.777s-0.775-4.852-1.02-8.092c-0.245-3.241-0.619-7.291-0.831-9-0.212-1.71-0.593-4.908-0.846-7.108-0.665-5.764-0.708-58.617-0.05-60.8 0.265-0.88 0.889-3.13 1.385-5 0.497-1.87 1.186-3.707 1.531-4.082 0.346-0.376 0.869-1.366 1.163-2.2 0.294-0.835 0.898-1.916 1.342-2.403 0.445-0.487 1.008-1.228 1.253-1.648 1.866-3.202 9.836-10.467 11.483-10.467 0.245 0 1.209-0.516 2.142-1.146 0.934-0.63 2.67-1.374 3.858-1.654 1.189-0.279 2.836-0.773 3.662-1.098 3.507-1.378 12.844-1.527 16.394-0.263m262.46 300c-2.963 1.566-4.303 2.712-5.168 4.417-0.432 0.851-1.01 1.83-1.285 2.175-1.646 2.066-1.715 7.866-0.123 10.346 4.106 6.398 11.464 8.68 17.234 5.343 2.094-1.21 4.382-3.318 4.382-4.036 0-0.179 0.45-0.936 1-1.681 1.415-1.918 1.157-8.044-0.421-10-0.267-0.33-0.6-0.981-0.742-1.447-1.418-4.665-10.09-7.648-14.877-5.117" fill="#9b731b"/><path d="m57.8 25.976c-1.1 0.181-3.08 0.693-4.4 1.137-1.32 0.445-2.76 0.904-3.2 1.021-0.44 0.116 0.1 0.11 1.2-0.013 1.1-0.124 3.17-0.591 4.6-1.037 3.51-1.096 9.562-1.077 13.435 0.042 1.521 0.44 3.665 0.922 4.765 1.072 1.165 0.158 2.739 0.759 3.769 1.437 0.972 0.641 2.043 1.165 2.378 1.165 1.309 0-3.287-2.415-5.647-2.968-1.375-0.322-3.267-0.858-4.205-1.193-2.026-0.721-9.854-1.13-12.695-0.663m-11.2 3.643c-0.88 0.635-1.827 1.16-2.103 1.168-1.738 0.046-9.645 7.227-11.541 10.48-0.245 0.42-0.808 1.161-1.253 1.648-0.444 0.487-1.048 1.568-1.342 2.403-0.294 0.834-0.855 1.862-1.248 2.283-0.392 0.421-0.713 0.979-0.713 1.241 0 0.897 1.963-1.643 2.348-3.039 0.395-1.43 1.409-2.964 3.352-5.072 0.605-0.656 1.1-1.334 1.1-1.507 0-0.499 5.566-5.586 6.823-6.236 0.625-0.323 1.281-0.821 1.457-1.105 0.176-0.285 1.119-0.775 2.095-1.089 0.977-0.315 2.218-0.982 2.759-1.483 1.405-1.303 0.203-1.089-1.734 0.308m35.096 1.985c0.276 0.443 0.83 0.909 1.23 1.036 1.1 0.349 9.074 8.65 9.074 9.445 0 0.203 0.449 0.957 0.998 1.677s1.207 1.923 1.462 2.674c0.254 0.75 0.792 1.838 1.195 2.417s0.979 2.109 1.28 3.4c0.675 2.895 2.182 6.337 2.231 5.097 0.019-0.468-0.416-1.868-0.966-3.112-0.55-1.243-1-2.549-1-2.901 0-2.493-5.573-11.294-9.831-15.523-3.864-3.838-6.803-6.019-5.673-4.21m-54.213 20.697c-0.395 1.485-0.935 3.419-1.2 4.299-0.641 2.124-0.615 55.024 0.03 60.6 0.686 5.938 1.649 14.817 1.821 16.8 0.086 0.99 0.083-0.63-7e-3 -3.6-0.17-5.648-0.61-10.935-1.415-17-0.973-7.326-0.68-52.987 0.364-56.8 0.857-3.128 1.559-7.001 1.269-6.999-0.08 1e-3 -0.468 1.216-0.862 2.7m71.767 7.126c-0.074 1.815 0.734 5.783 1.459 7.165 0.349 0.664 0.776 1.838 0.949 2.608 0.246 1.095 0.272 0.953 0.12-0.654-0.106-1.13-0.496-2.66-0.866-3.4-0.369-0.74-0.883-2.606-1.142-4.146-0.26-1.553-0.492-2.254-0.52-1.573m2.778 12.213c-0.034 1.246 0.691 3.527 1.385 4.36 0.275 0.33 0.625 1.41 0.777 2.4 0.364 2.362 1.179 5.118 1.939 6.552 0.336 0.634 0.727 2.002 0.87 3.041 0.265 1.927 2.165 5.653 2.189 4.293 6e-3 -0.393-0.247-1.113-0.563-1.6-0.317-0.487-0.958-2.322-1.426-4.077-0.469-1.755-1.008-3.379-1.2-3.61s-0.794-2.125-1.339-4.209c-1.335-5.108-2.595-8.531-2.632-7.15m7.214 21.883c-0.094 1.172 0.89 4.072 1.599 4.714 0.968 0.876 1.002 0.103 0.059-1.323-0.385-0.582-0.906-1.7-1.158-2.486-0.252-0.785-0.477-1.193-0.5-0.905m2.607 7.277c0.223 1.637 0.492 2.287 2.045 4.952 0.272 0.467 0.497 1.141 0.5 1.499 8e-3 0.836 1.087 3.428 1.545 3.711 0.193 0.12 0.585 1.077 0.871 2.128 0.286 1.05 0.844 2.378 1.239 2.95 0.396 0.571 1.015 1.921 1.376 3 0.36 1.078 0.975 2.32 1.364 2.76 0.39 0.44 0.823 1.07 0.962 1.4 0.14 0.33 0.149 0.06 0.022-0.6-0.128-0.66-0.579-1.572-1.003-2.026-0.423-0.454-0.771-1.084-0.772-1.4s-0.631-1.8-1.4-3.298c-0.769-1.499-1.398-2.957-1.398-3.241s-0.44-1.343-0.978-2.355c-0.538-1.011-1.2-2.613-1.472-3.559-0.272-0.947-0.805-2.174-1.183-2.727-0.379-0.554-0.975-1.904-1.326-3l-0.638-1.994 0.246 1.8m10.151 23.806c0 0.395 0.468 1.331 1.039 2.081 0.571 0.749 1.2 1.946 1.397 2.659s0.681 1.647 1.076 2.075c0.395 0.429 0.967 1.409 1.273 2.179 0.305 0.77 0.871 1.86 1.257 2.423 0.387 0.563 1.019 1.823 1.406 2.8 0.386 0.977 1.008 1.998 1.381 2.267 0.373 0.27 0.794 1.08 0.936 1.8 0.141 0.721 0.792 2.017 1.446 2.881s1.189 1.724 1.189 1.91 0.63 1.254 1.4 2.374c0.77 1.119 1.4 2.253 1.4 2.52s0.423 0.883 0.941 1.369c0.517 0.486 1.175 1.594 1.461 2.462 0.287 0.869 0.832 1.678 1.212 1.798 0.38 0.121 0.792 0.725 0.915 1.342 0.124 0.618 0.82 1.865 1.548 2.772s1.604 2.044 1.948 2.528c0.739 1.04 2.736 0.791 3.042-0.38 0.1-0.384 0.573-0.87 1.051-1.082 0.486-0.215 1.14-1.126 1.486-2.069 0.34-0.927 1.108-2.197 1.707-2.822s1.089-1.43 1.089-1.788 0.351-0.762 0.78-0.899c0.428-0.136 0.901-0.643 1.05-1.126 0.334-1.083 10.622-11.316 11.729-11.667 0.44-0.14 0.908-0.596 1.041-1.013s0.637-0.883 1.12-1.034c0.484-0.15 1.48-0.797 2.213-1.437 0.733-0.639 1.851-1.266 2.485-1.393 0.633-0.126 1.418-0.637 1.744-1.134 0.35-0.535 1.193-1.017 2.06-1.18 0.807-0.151 1.861-0.668 2.343-1.149 0.482-0.48 1.766-1.109 2.855-1.398s2.342-0.865 2.784-1.28c0.443-0.415 1.613-0.87 2.6-1.011 2.525-0.36 4.479-0.983 5.286-1.687 0.471-0.412 2.556-0.774 6.6-1.147 3.25-0.3 7.08-0.731 8.51-0.958 5.102-0.811 13.89-0.905 18.2-0.196 2.2 0.362 5.89 0.879 8.2 1.15 3.168 0.371 4.642 0.747 6 1.528 0.99 0.57 2.514 1.162 3.386 1.316 0.873 0.153 1.805 0.59 2.072 0.971 0.266 0.38 1.262 0.947 2.213 1.259 0.951 0.313 2.218 1.066 2.816 1.674 0.597 0.608 1.341 1.106 1.654 1.106 0.312 0 0.862 0.45 1.222 1 0.361 0.55 0.841 1 1.069 1 0.568 0 6.157 5.624 6.497 6.538 0.151 0.406 0.643 0.834 1.093 0.952 0.504 0.132 0.908 0.661 1.051 1.374 0.127 0.638 0.658 1.496 1.179 1.906 0.522 0.41 0.948 1.024 0.948 1.364s0.18 0.73 0.4 0.866 0.4 0.564 0.4 0.951c0 0.388 0.45 1.096 1 1.574s1.001 1.186 1.002 1.572c4e-3 1.314 0.79 3.543 1.528 4.336 0.535 0.574 0.86 1.929 1.195 4.978 0.252 2.304 0.729 5.629 1.059 7.389 0.804 4.285 0.805 13.541 2e-3 17.2-0.338 1.54-0.808 3.966-1.046 5.39-0.306 1.84-0.765 2.997-1.585 3.991-0.635 0.771-1.155 1.781-1.155 2.246 0 0.513-0.393 1.024-1 1.3-0.55 0.251-1 0.736-1 1.078s-0.63 0.994-1.4 1.448-1.4 1.066-1.4 1.36c0 0.293-0.405 0.654-0.9 0.803-0.495 0.148-1.71 0.765-2.7 1.37-2.325 1.421-6.979 2.28-8.529 1.573l-1.071-0.487v-16.908c0-14.712-0.08-16.987-0.618-17.525-2.477-2.476-47.975-1.699-50.812 0.868-0.423 0.383-1.67 0.932-2.77 1.22-1.1 0.287-2.36 0.856-2.8 1.263s-1.567 1.069-2.503 1.471c-0.937 0.402-1.792 1.008-1.899 1.347-0.108 0.339-0.735 0.819-1.393 1.068-0.659 0.248-1.366 0.895-1.572 1.437-0.211 0.556-0.824 1.098-1.404 1.244-0.677 0.17-1.029 0.532-1.029 1.061 0 0.489-0.393 0.951-1.007 1.185-0.554 0.21-1.164 0.796-1.356 1.301-0.192 0.504-0.909 1.517-1.593 2.249s-1.244 1.681-1.244 2.108c0 0.428-0.419 1.174-0.93 1.658-0.512 0.485-1.169 1.781-1.461 2.881s-0.802 2.316-1.134 2.702c-1.275 1.485-1.292 4.288-0.033 5.605 0.624 0.652 1.238 1.516 1.366 1.919s0.594 0.848 1.035 0.988c0.442 0.14 0.969 0.691 1.172 1.225s0.809 1.171 1.346 1.416c0.538 0.245 1.084 0.87 1.214 1.389 0.139 0.552 0.635 1.044 1.196 1.185 0.56 0.14 1.058 0.632 1.195 1.179 0.13 0.516 0.597 1.053 1.039 1.194 0.442 0.14 1.065 0.759 1.383 1.376 0.319 0.616 0.945 1.216 1.391 1.332 0.446 0.117 0.987 0.675 1.202 1.24 0.218 0.575 0.823 1.136 1.37 1.273 0.587 0.148 1.076 0.631 1.22 1.206 0.145 0.574 0.634 1.057 1.221 1.205 0.539 0.135 1.089 0.59 1.222 1.01 0.133 0.421 0.757 1.031 1.386 1.356s1.258 0.953 1.398 1.395c0.141 0.442 0.655 0.903 1.143 1.026 0.489 0.123 1.062 0.615 1.274 1.094s0.745 1.054 1.185 1.278 1.273 0.857 1.85 1.407c2.575 2.452 7.028 6.093 8.256 6.75 0.462 0.247 0.947 0.788 1.079 1.202 0.134 0.424 0.757 0.856 1.427 0.99 0.701 0.141 1.188 0.491 1.188 0.854 0 0.34 0.63 0.917 1.4 1.285 0.77 0.367 1.4 0.811 1.4 0.987 0 0.177 0.765 0.808 1.7 1.403s2.112 1.497 2.616 2.005 1.274 0.924 1.71 0.924c0.468 0 0.942 0.391 1.155 0.951 0.199 0.523 0.888 1.134 1.531 1.358 0.642 0.224 1.641 0.88 2.218 1.457 0.577 0.578 1.558 1.152 2.18 1.276 0.626 0.125 1.299 0.611 1.51 1.09 0.209 0.475 0.74 0.931 1.18 1.013 0.44 0.083 1.4 0.676 2.133 1.319s1.864 1.275 2.514 1.405 1.37 0.588 1.599 1.018c0.23 0.429 1.077 1.056 1.883 1.393 0.805 0.336 1.975 1.041 2.598 1.566 0.624 0.525 1.616 1.073 2.204 1.219 0.588 0.145 1.295 0.581 1.57 0.969 0.276 0.388 1.176 0.92 2 1.184 0.825 0.263 1.949 0.891 2.499 1.396 0.55 0.504 1.72 1.108 2.6 1.341 0.88 0.234 1.822 0.781 2.092 1.217 0.271 0.436 1.256 0.999 2.19 1.25 0.933 0.251 2.192 0.874 2.798 1.384 0.605 0.509 1.69 1.05 2.41 1.202 0.721 0.152 1.76 0.681 2.31 1.175 0.55 0.495 1.862 1.131 2.916 1.415 1.054 0.283 2.079 0.819 2.277 1.19 0.208 0.388 1.307 0.886 2.584 1.172 1.223 0.274 2.223 0.66 2.223 0.858 0 0.513 1.967 1.465 3.7 1.79 0.809 0.151 1.689 0.537 1.954 0.857 0.591 0.712 2.962 1.735 4.022 1.735 0.427 0 1.367 0.45 2.088 1 0.722 0.55 1.673 1 2.114 1 1.227 0 3.36 0.838 4.153 1.631 0.391 0.391 1.579 0.835 2.64 0.986 1.061 0.152 2.829 0.772 3.929 1.379s2.791 1.223 3.758 1.368 2.281 0.636 2.92 1.092c0.639 0.455 2.368 1.036 3.842 1.292s3.186 0.805 3.804 1.22c0.619 0.416 2.496 0.994 4.172 1.286 1.675 0.291 3.15 0.668 3.275 0.838 0.58 0.78 2.226 1.308 5.281 1.691 2.063 0.258 3.434 0.627 3.629 0.976 0.348 0.622 2.872 1.263 6.519 1.655 1.32 0.142 2.963 0.603 3.652 1.025s2.759 0.976 4.6 1.232c2.363 0.329 3.712 0.74 4.586 1.397 0.681 0.513 1.544 0.932 1.92 0.932 0.942 0 2.693 0.951 3.605 1.959 0.419 0.463 1.059 0.841 1.424 0.841 0.364 0 1.062 0.54 1.55 1.2s1.155 1.2 1.484 1.2c0.328 0 0.792 0.43 1.032 0.956 0.239 0.526 0.865 1.152 1.391 1.391 0.526 0.24 0.956 0.697 0.956 1.015 0 0.319 0.45 0.934 1 1.367 0.55 0.432 1 0.959 1 1.171s0.63 1.21 1.4 2.218c0.77 1.009 1.4 2.127 1.4 2.484 0 0.779 0.663 2.123 1.544 3.132 0.392 0.449 0.908 2.544 1.328 5.4 1.254 8.507 2.059 7.921-10.539 7.666-11.015-0.223-10.333-0.044-10.774-2.832-0.291-1.842-3.255-7.16-3.993-7.166-0.129-1e-3 -1.102-0.677-2.161-1.502l-1.926-1.5h-10.079l-2.391 1.719c-1.316 0.945-2.751 2.295-3.19 3-0.439 0.704-1.023 1.514-1.298 1.799s-0.696 1.275-0.937 2.2c-1.047 4.025-0.672 3.669-3.992 3.802-1.646 0.066-4.792-0.168-6.992-0.519s-7.04-0.993-10.756-1.425c-3.716-0.433-7.676-1.046-8.8-1.363s-3.844-0.862-6.044-1.211-4.72-0.888-5.6-1.197-3.014-0.847-4.742-1.195c-1.728-0.349-3.774-0.899-4.548-1.222-0.773-0.323-2.783-0.922-4.467-1.33-1.683-0.409-3.597-1.011-4.252-1.338-0.655-0.328-2.091-0.821-3.191-1.097-1.1-0.275-2.877-0.858-3.95-1.294-1.072-0.437-2.962-1.125-4.2-1.53-1.237-0.405-3.006-1.11-3.931-1.568-0.924-0.457-1.869-0.831-2.099-0.831s-1.561-0.54-2.958-1.2-2.668-1.2-2.825-1.2c-0.97 0-18.373-8.758-25.037-12.6-1.43-0.824-3.41-1.954-4.4-2.51s-1.89-1.127-2-1.27c-0.11-0.142-1.64-1.097-3.4-2.122s-3.39-2.025-3.621-2.223c-0.232-0.198-1.222-0.878-2.2-1.513-0.979-0.634-2.859-1.969-4.179-2.966s-2.935-2.155-3.59-2.573c-0.654-0.417-1.374-0.908-1.6-1.09-0.225-0.181-1.58-1.177-3.01-2.211-2.664-1.928-6.161-4.794-9-7.378-0.88-0.8-2.22-1.971-2.977-2.6l-1.377-1.144h-69.246l-4.358 1.499c-2.397 0.825-4.557 1.655-4.8 1.845-0.243 0.191-1.537 0.455-2.875 0.588-3.007 0.299-3.674 0.545-3.966 1.465-0.126 0.398-0.661 0.832-1.189 0.964-0.527 0.133-1.343 0.78-1.813 1.44-0.469 0.659-1.117 1.199-1.439 1.199s-0.698 0.315-0.836 0.7c-0.139 0.385-0.862 1.33-1.607 2.1-2.607 2.693-2.888 3.065-3.645 4.832-0.419 0.979-1.035 2.005-1.367 2.281-0.333 0.276-0.836 1.354-1.119 2.395-0.283 1.04-0.837 2.206-1.232 2.59-1.824 1.776-3.475 44.792-1.905 49.627 0.814 2.505 0.508 2.463 18.869 2.595l16.718 0.121 0.449 0.986c0.334 0.734 0.33 1.504-0.018 3.01-0.257 1.113-0.467 2.389-0.467 2.836s-0.513 1.468-1.141 2.269c-0.627 0.802-1.26 1.953-1.407 2.558s-0.538 1.1-0.868 1.1c-0.331 0-0.812 0.463-1.07 1.03-0.259 0.566-0.962 1.285-1.564 1.596-0.601 0.311-1.201 0.906-1.333 1.322-0.137 0.43-0.757 0.86-1.439 0.996-0.659 0.132-1.633 0.675-2.165 1.207-0.733 0.733-1.722 1.08-4.09 1.438-1.718 0.259-4.023 0.625-5.123 0.812-2.621 0.446-14.587 0.439-17.4-0.011-1.21-0.194-4.173-0.563-6.585-0.821-3.38-0.362-4.709-0.683-5.8-1.4-0.778-0.512-2.304-1.127-3.39-1.368-1.087-0.241-2.199-0.757-2.472-1.146-0.272-0.389-1.222-0.948-2.11-1.241-0.889-0.293-2.013-0.956-2.499-1.473-0.486-0.518-1.2-0.941-1.586-0.941-0.387 0-1.088-0.54-1.558-1.2s-1.04-1.2-1.267-1.2c-0.589 0-6.333-5.953-6.333-6.564 0-0.279-0.45-0.713-1-0.963-0.55-0.251-1-0.723-1-1.051 0-0.327-0.514-1.185-1.143-1.908-0.628-0.723-1.362-1.988-1.63-2.813-0.269-0.824-0.813-1.726-1.209-2.004-0.414-0.289-0.92-1.459-1.187-2.746-0.256-1.233-0.907-2.841-1.448-3.574-0.651-0.882-0.983-1.863-0.983-2.903 0-1.593-0.817-7.928-1.634-12.674-0.541-3.139-0.297-10.151 0.567-16.324 0.349-2.489 0.751-6.359 0.894-8.6 0.197-3.087 0.498-4.592 1.241-6.204 0.54-1.17 1.172-3.24 1.404-4.6 0.233-1.36 0.751-2.832 1.151-3.272s0.963-1.691 1.252-2.78 0.918-2.373 1.398-2.855c0.481-0.482 0.997-1.53 1.147-2.33s0.598-1.683 0.996-1.961c0.398-0.279 1.028-1.268 1.4-2.198s1.076-2.005 1.563-2.388c0.488-0.384 1.007-1.178 1.155-1.766 0.147-0.588 0.618-1.18 1.046-1.316 0.429-0.136 0.893-0.607 1.033-1.047 0.37-1.166 10.738-11.559 11.532-11.559 0.369 0 0.877-0.45 1.128-1 0.25-0.55 0.753-1 1.116-1 0.364 0 1.179-0.54 1.811-1.2s1.314-1.2 1.514-1.2c0.897 0 3.079-1.349 3.298-2.039 0.145-0.457 0.609-0.761 1.161-0.761 2.451 0 4.154-3.766 2.372-5.245-0.36-0.299-0.975-1.291-1.367-2.205-0.72-1.681-1.429-2.432-1.875-1.986-0.135 0.134 0.043 0.467 0.394 0.74 2.864 2.224 2.8 6.694-0.119 8.296-1.001 0.55-2.441 1.404-3.2 1.899-0.758 0.494-1.594 0.899-1.858 0.9-0.264 0-0.624 0.235-0.8 0.521s-0.95 0.959-1.72 1.494c-3.973 2.765-9.842 8.273-13.025 12.222-0.866 1.076-1.89 2.307-2.275 2.735-0.385 0.429-0.7 0.918-0.7 1.086 0 0.169-0.411 0.72-0.913 1.225s-1.149 1.49-1.437 2.189-0.86 1.576-1.271 1.948c-0.412 0.373-0.958 1.331-1.213 2.129-0.256 0.799-0.781 1.812-1.167 2.252-0.387 0.44-0.943 1.52-1.237 2.4-0.293 0.88-0.833 2.05-1.201 2.6-0.367 0.55-0.99 2.17-1.384 3.6-0.395 1.43-0.982 3.013-1.305 3.518s-1.025 3.385-1.56 6.4c-0.534 3.015-1.167 6.472-1.406 7.682-0.984 4.994-0.603 24.959 0.562 29.4 0.577 2.2 1.163 4.66 1.303 5.467 0.139 0.808 0.785 2.518 1.436 3.8 0.651 1.283 1.185 2.57 1.188 2.86 3e-3 0.289 0.426 1.099 0.941 1.8 0.515 0.7 1.167 1.858 1.449 2.573 0.281 0.715 0.631 1.3 0.777 1.3s0.603 0.585 1.016 1.3c0.709 1.229 4.875 6.104 6.481 7.583 1.895 1.746 4.055 3.452 5.241 4.138 0.715 0.413 1.3 0.883 1.3 1.044 0 0.262 1.077 0.871 5 2.827 4.049 2.019 5.928 2.746 8.6 3.328 1.65 0.359 3.99 0.952 5.2 1.317 1.823 0.549 4.12 0.663 13.4 0.663h11.2l3.8-1.366c2.09-0.751 4.172-1.696 4.626-2.1s1.02-0.734 1.258-0.734c0.519 0 6.116-5.475 6.116-5.983 0-0.196 0.415-0.864 0.922-1.486s1.169-1.941 1.472-2.931c0.302-0.99 0.877-2.468 1.278-3.284 0.925-1.886 0.98-4.934 0.095-5.273-0.348-0.134-8.326-0.243-17.73-0.243h-17.098l-0.869-0.926c-0.87-0.925-0.87-0.934-0.87-21.223 0-21.562 0.195-24.539 1.841-28.163 0.527-1.161 0.96-2.331 0.96-2.6 1e-3 -0.268 0.399-1.118 0.884-1.888s1.206-2.03 1.601-2.8c1.156-2.25 2.535-3.995 5.806-7.347 6.221-6.373 7.827-6.606 12.408-1.803 5.459 5.724 17.561 17.716 18.919 18.748 0.722 0.548 2.079 1.763 3.015 2.7 0.937 0.936 1.893 1.702 2.125 1.702s0.699 0.422 1.037 0.938c0.339 0.516 1.047 1.135 1.575 1.376 0.528 0.24 1.077 0.808 1.221 1.262 0.144 0.453 0.538 0.824 0.874 0.824 0.337 0 1.092 0.513 1.679 1.141 0.586 0.627 1.603 1.42 2.26 1.762 0.657 0.341 1.631 1.088 2.165 1.659 0.533 0.571 1.204 1.038 1.491 1.038 0.286 0 0.804 0.433 1.151 0.962 0.346 0.529 1.077 1.074 1.623 1.211s1.187 0.676 1.424 1.197c0.243 0.532 0.9 1.042 1.498 1.161 0.587 0.118 1.566 0.677 2.176 1.242 0.611 0.566 1.65 1.308 2.309 1.649 0.66 0.341 1.299 0.88 1.421 1.199 0.123 0.318 0.447 0.579 0.722 0.579s1.291 0.596 2.257 1.324c0.967 0.728 2.337 1.557 3.045 1.843 0.707 0.285 1.389 0.841 1.513 1.234 0.134 0.421 0.789 0.82 1.593 0.971 0.751 0.141 1.87 0.79 2.485 1.442 0.616 0.652 1.41 1.186 1.766 1.186 0.355 0 1.331 0.544 2.167 1.209 0.837 0.665 1.987 1.318 2.555 1.452 0.569 0.133 1.484 0.646 2.034 1.139s1.511 1.017 2.134 1.165c0.624 0.147 1.54 0.673 2.036 1.169 0.496 0.495 1.648 1.125 2.561 1.398 0.912 0.273 2.113 0.918 2.668 1.432s1.697 1.045 2.537 1.179c0.841 0.135 1.852 0.601 2.246 1.037 0.394 0.435 1.639 1.061 2.767 1.39 1.128 0.328 2.364 0.965 2.747 1.414s1.036 0.816 1.451 0.816c1.039 0 3.414 1.03 3.998 1.733 0.264 0.319 1.267 0.698 2.227 0.842 0.961 0.144 2.53 0.772 3.487 1.396 0.958 0.624 2.57 1.253 3.582 1.398 1.013 0.144 2.184 0.581 2.603 0.971 0.418 0.39 1.901 0.951 3.294 1.247 1.394 0.296 3.156 0.96 3.916 1.475 0.76 0.516 1.791 0.938 2.291 0.938 1.399 0 4.904 1.136 5.418 1.756 0.253 0.304 1.622 0.678 3.042 0.83 1.438 0.154 3.427 0.705 4.489 1.243 1.141 0.578 3.271 1.144 5.306 1.41 1.87 0.245 4.03 0.782 4.8 1.193s3.29 1.02 5.6 1.352 5.231 0.966 6.49 1.41c1.26 0.443 3.06 0.812 4 0.819 1.917 0.014 8.878 0.97 10.11 1.388 0.44 0.149 1.16 0.426 1.6 0.616 0.44 0.189 5.03 0.556 10.2 0.814 5.17 0.259 11.29 0.634 13.6 0.833 10.036 0.868 50.83 0.862 55.281-8e-3 2.265-0.442 5.019-0.931 6.119-1.086 1.204-0.17 2.46-0.666 3.156-1.247 0.636-0.531 1.658-1.066 2.272-1.189 0.614-0.122 1.52-0.653 2.014-1.178 0.493-0.526 1.141-0.956 1.439-0.956 0.999 0 8.54-7.359 9.593-9.362 0.336-0.64 0.943-1.519 1.349-1.954 0.405-0.436 0.851-1.312 0.991-1.948 0.14-0.635 0.666-1.646 1.17-2.246 0.578-0.688 1.02-1.901 1.199-3.29 0.156-1.21 0.647-3.64 1.092-5.4 0.444-1.76 0.972-4.01 1.174-5 0.422-2.076 0.073-6.14-0.654-7.6-0.273-0.55-0.798-2.332-1.165-3.96-0.367-1.629-1.008-3.395-1.426-3.925-0.417-0.531-0.966-1.593-1.219-2.36s-0.893-1.862-1.423-2.433c-0.529-0.572-0.962-1.249-0.962-1.505 0-0.758-6.57-7.236-8.356-8.241-0.904-0.508-1.644-1.065-1.644-1.238 0-0.454-6.547-3.514-8.095-3.783-0.718-0.125-2.655-0.64-4.305-1.143s-4.26-1.141-5.8-1.417-3.311-0.761-3.936-1.077c-0.624-0.317-2.604-0.851-4.4-1.187-1.795-0.336-4.001-0.945-4.902-1.353s-2.95-1.015-4.555-1.35c-1.604-0.334-3.302-0.861-3.774-1.17-0.471-0.309-1.932-0.793-3.245-1.076s-3.029-0.831-3.812-1.218c-0.783-0.386-2.576-1.001-3.984-1.366s-3.018-0.987-3.576-1.382c-0.559-0.395-1.787-0.847-2.73-1.005-0.943-0.157-2.694-0.809-3.892-1.449-1.199-0.639-2.448-1.162-2.778-1.162-0.329 0-1.944-0.63-3.589-1.4-1.644-0.77-3.223-1.401-3.509-1.401-0.285-1e-3 -1.14-0.381-1.899-0.844-0.76-0.463-2.142-1.071-3.071-1.351-0.93-0.279-2.2-0.871-2.823-1.315-0.623-0.443-1.851-1.001-2.729-1.239s-2.261-0.887-3.075-1.441c-0.813-0.555-1.673-1.009-1.911-1.009-0.414 0-5.125-2.262-7.21-3.462-0.55-0.317-1.72-0.902-2.6-1.3-0.88-0.399-2.3-1.2-3.156-1.781-0.856-0.582-1.846-1.062-2.2-1.068s-1.351-0.546-2.215-1.2-1.796-1.189-2.07-1.189c-0.273 0-1.006-0.411-1.628-0.914-0.622-0.502-1.989-1.342-3.037-1.865-1.048-0.524-2.105-1.193-2.349-1.487-0.243-0.294-0.659-0.534-0.924-0.534-0.264 0-1.366-0.63-2.449-1.4s-2.126-1.4-2.318-1.4-0.963-0.54-1.715-1.2-1.604-1.2-1.895-1.2c-0.29 0-0.976-0.416-1.525-0.925-0.549-0.508-1.658-1.314-2.465-1.79s-1.689-1.048-1.961-1.27c-1.526-1.251-4.393-3.246-5.45-3.793-0.671-0.347-1.411-0.988-1.645-1.426s-0.65-0.796-0.923-0.796-1.068-0.495-1.767-1.1-2.285-1.82-3.526-2.7c-1.24-0.88-2.719-2.095-3.285-2.7s-1.24-1.1-1.497-1.1-0.951-0.495-1.543-1.1c-0.591-0.605-1.655-1.581-2.366-2.169-10.743-8.895-28.787-26.636-30.541-30.029-0.992-1.917 2.111-11.816 3.961-12.638 0.172-0.076 0.92-1.067 1.664-2.201 2.06-3.143 6.549-7.55 8.414-8.259 0.556-0.211 1.011-0.575 1.011-0.808 0-0.234 0.765-0.779 1.7-1.212 0.935-0.434 2.24-1.134 2.9-1.557s1.496-0.782 1.858-0.798 1.982-0.614 3.6-1.329l2.942-1.3 44.524-0.248 0.838 0.899c0.824 0.884 0.838 1.196 0.844 18.124 3e-3 9.474 0.161 17.47 0.351 17.769 0.73 1.152 8.824-1.013 11.42-3.054 0.622-0.49 1.288-0.89 1.48-0.89 0.52 0 5.943-5.643 5.943-6.183 0-0.257 0.321-0.815 0.714-1.242 0.393-0.426 1.338-2.485 2.1-4.575l1.386-3.8-8e-3 -11.6c-7e-3 -11.493-0.017-11.633-1.1-15.145-0.6-1.949-1.092-3.911-1.092-4.36 0-0.448-0.435-1.733-0.967-2.855s-1.338-2.85-1.791-3.84c-2.582-5.642-7.865-12.486-12.277-15.902-4.327-3.352-5.705-4.354-6.765-4.921-3.114-1.667-3.769-1.995-6.2-3.104-1.43-0.652-4.22-1.554-6.2-2.005-1.98-0.45-4.41-1.05-5.4-1.332-2.836-0.808-25.765-0.691-29.2 0.15-3.169 0.775-6.336 1.391-9 1.75-1.1 0.148-2.63 0.585-3.4 0.972s-2.21 0.926-3.2 1.198c-1.698 0.467-7.091 2.799-8.4 3.632-0.33 0.21-1.32 0.728-2.2 1.15-0.88 0.423-2.22 1.229-2.978 1.79-0.757 0.562-1.614 1.022-1.903 1.022-0.29 0-1.091 0.54-1.782 1.2s-1.375 1.2-1.521 1.2-0.617 0.315-1.047 0.7-1.859 1.588-3.175 2.673c-2.67 2.2-6.719 6.29-8.936 9.026-0.802 0.99-1.677 2.032-1.944 2.315s-0.801 1.049-1.186 1.701-0.833 1.185-0.996 1.185c-0.162 0-0.639 0.765-1.059 1.7-0.421 0.935-1.537 2.501-2.479 3.48l-1.714 1.78-1.722-1.98c-0.947-1.089-1.931-2.43-2.187-2.98-0.255-0.55-0.628-1.27-0.829-1.6s-0.675-1.118-1.053-1.751c-0.379-0.633-1.274-2.024-1.989-3.091-0.715-1.066-1.3-2.04-1.3-2.164s-0.63-1.161-1.4-2.304c-0.77-1.144-1.4-2.273-1.4-2.509 0-0.237-0.323-0.779-0.719-1.206-0.395-0.426-1.041-1.585-1.435-2.575-0.395-0.99-0.926-2.042-1.182-2.339-0.255-0.296-1.004-1.599-1.664-2.896s-2.186-4.295-3.392-6.662c-2.631-5.164-4.008-7.328-4.008-6.297m-93.573 13.308c-0.015 0.723 0.324 2.793 0.754 4.6 0.43 1.808 0.947 4.366 1.149 5.686 0.321 2.099 0.374 2.199 0.417 0.8 0.058-1.85-0.872-7.489-1.714-10.4-0.527-1.821-0.581-1.883-0.606-0.686m2.596 14.886c0.099 1.21 0.452 2.975 0.784 3.922 0.333 0.948 0.805 3.07 1.05 4.716s0.541 2.897 0.659 2.78c0.365-0.366-0.725-7.103-1.524-9.418-0.418-1.21-0.847-2.65-0.954-3.2-0.108-0.55-0.114-0.01-0.015 1.2m2.577 12.739c0 0.406 0.303 1.345 0.673 2.087s0.9 2.657 1.178 4.255c0.278 1.599 0.764 3.494 1.08 4.213 0.747 1.696 1.389 3.502 1.601 4.506 0.094 0.44 0.094-0.067 2e-3 -1.126-0.093-1.059-0.592-2.859-1.111-4-0.518-1.141-1.137-3.35-1.376-4.91-0.569-3.713-2.047-7.342-2.047-5.025m4.801 17.072c0 0.446 0.281 1.214 0.626 1.707 0.345 0.492 0.868 1.657 1.161 2.589 0.317 1.007 0.549 1.353 0.572 0.853 0.05-1.059-0.683-3.199-1.629-4.76-0.604-0.996-0.728-1.062-0.73-0.389m2.401 6.81c2e-3 0.429 0.295 1.319 0.652 1.979 0.356 0.66 0.969 2.19 1.361 3.4 0.391 1.21 0.728 1.822 0.749 1.36 0.046-1.064-0.59-3.01-1.81-5.539-0.53-1.099-0.953-1.632-0.952-1.2m2.798 7.956c0 0.098 0.343 0.773 0.761 1.5 0.419 0.728 0.892 1.948 1.052 2.712 0.159 0.764 0.785 2.384 1.391 3.6s1.213 2.481 1.349 2.811c0.137 0.33 0.146-0.098 0.02-0.95-0.125-0.853-0.657-2.203-1.181-3-0.524-0.798-1.144-2.311-1.377-3.363-0.508-2.292-2.015-4.767-2.015-3.31m4.8 11.863c0 0.33 0.176 0.776 0.392 0.992 0.215 0.215 0.748 1.106 1.184 1.98 0.436 0.873 0.799 1.278 0.808 0.9s-0.361-1.368-0.822-2.2c-1.064-1.921-1.562-2.454-1.562-1.672m2.4 4.928c0 0.178 0.431 1.158 0.957 2.178s1.186 2.484 1.465 3.254 0.816 1.76 1.193 2.2c0.378 0.44 0.893 1.446 1.145 2.235 0.253 0.79 0.896 2.027 1.429 2.75 0.533 0.722 1.077 1.807 1.21 2.41 0.132 0.603 0.547 1.436 0.921 1.851s1.086 1.564 1.583 2.554c1.746 3.482 2.651 4.938 2.797 4.501 0.189-0.569-1.402-3.701-1.881-3.701-0.201 0-0.482-0.405-0.624-0.9-0.464-1.614-1.425-3.5-1.783-3.5-0.192 0-0.571-0.675-0.84-1.5-0.27-0.825-0.918-2.13-1.44-2.9s-1.122-2.038-1.334-2.817c-0.211-0.78-0.708-1.77-1.104-2.2-0.395-0.431-0.933-1.506-1.194-2.389-0.433-1.462-2.5-4.791-2.5-4.026m291.52 112.53c2.373 1.188 5.106 3.69 5.52 5.053 0.142 0.466 0.475 1.117 0.742 1.447 1.578 1.956 1.836 8.082 0.421 10-0.55 0.745-1 1.502-1 1.681 0 0.718-2.288 2.826-4.382 4.036-5.77 3.337-13.128 1.055-17.234-5.343-1.592-2.48-1.523-8.28 0.123-10.346 0.275-0.345 0.853-1.324 1.285-2.175 2.387-4.705 9.54-6.849 14.525-4.353" fill="#d48d04"/></g></g></svg>
